<svg width="177" height="177" viewBox="0 0 177 177" fill="none" xmlns="http://www.w3.org/2000/svg">
<g clip-path="url(#clip0_2460_639)">
<g filter="url(#filter0_d_2460_639)">
<path d="M160.238 16.7624C147.087 3.61184 126.395 1.8612 112.08 12.2931L108.614 8.82781L104.798 12.6416L102.229 15.2109L99.0094 18.4328L102.389 21.8097C96.8052 29.1966 94.6812 38.456 95.8593 47.5244L94.1889 51.0285L87.0591 59.8481L17.0611 146.387L14.7574 148.691L18.3499 152.284L5.53125 168.581L8.41856 171.469L24.7247 158.65L28.3145 162.24L30.6155 159.939L117.152 89.9408L125.969 82.8166L129.481 81.1461C138.547 82.3188 147.803 80.1975 155.188 74.6193L158.57 78.0016L161.792 74.7797L164.364 72.2076L168.178 68.3938L164.71 64.9257C175.139 50.6081 173.385 29.9102 160.238 16.7624ZM31.6332 153.55C31.5704 153.614 31.4955 153.665 31.4129 153.699C31.3303 153.734 31.2416 153.752 31.152 153.752C31.0624 153.752 30.9737 153.734 30.8911 153.699C30.8085 153.665 30.7336 153.614 30.6708 153.55L23.447 146.329C23.384 146.266 23.334 146.191 23.2999 146.109C23.2658 146.027 23.2482 145.938 23.2482 145.849C23.2482 145.669 23.3197 145.497 23.447 145.369C23.5742 145.242 23.7468 145.171 23.9268 145.171C24.1068 145.171 24.2794 145.242 24.4066 145.369L31.6332 152.591C31.76 152.718 31.8312 152.891 31.8312 153.07C31.8312 153.25 31.76 153.423 31.6332 153.55ZM39.3272 144.598C38.4087 145.516 37.1632 146.032 35.8646 146.032C34.566 146.032 33.3205 145.516 32.4021 144.598C31.7801 143.972 31.3411 143.188 31.1326 142.33L40.5966 142.325C40.3884 143.184 39.9495 143.97 39.3272 144.598ZM31.1354 139.949C31.3428 139.119 31.7577 138.331 32.4021 137.681C32.8567 137.226 33.3964 136.865 33.9906 136.619C34.5847 136.373 35.2215 136.246 35.8646 136.246C36.5077 136.246 37.1446 136.373 37.7387 136.619C38.3328 136.865 38.8726 137.226 39.3272 137.681C39.9743 138.331 40.3892 139.122 40.5966 139.954L31.1354 139.949ZM46.2689 133.458C46.0899 133.636 45.8774 133.778 45.6437 133.874C45.4099 133.971 45.1595 134.02 44.9067 134.02C44.6538 134.019 44.4036 133.969 44.1701 133.872C43.9367 133.775 43.7247 133.633 43.5461 133.454C43.3676 133.275 43.2261 133.062 43.1297 132.829C43.0333 132.595 42.9839 132.344 42.9843 132.092C42.9847 131.839 43.0349 131.588 43.132 131.355C43.2291 131.122 43.3712 130.91 43.5503 130.731C43.9119 130.371 44.4019 130.168 44.9125 130.169C45.4231 130.17 45.9125 130.374 46.2731 130.735C46.6336 131.097 46.8357 131.587 46.8349 132.097C46.8341 132.608 46.6305 133.097 46.2689 133.458ZM69.1462 117.473L59.5273 107.851L79.2186 88.1625L88.8402 97.7841L69.1462 117.473ZM92.5406 89.36C91.8974 89.3604 91.2605 89.2339 90.6662 88.9879C90.072 88.7418 89.5321 88.381 89.0774 87.9261C88.6227 87.4712 88.2622 86.9311 88.0165 86.3367C87.7708 85.7423 87.6447 85.1053 87.6454 84.4621C87.6454 83.5439 87.9137 82.6894 88.3562 81.9565L95.0435 88.6493C94.2908 89.1129 93.4245 89.3589 92.5406 89.36ZM96.7277 86.965L90.0377 80.275C90.7733 79.8352 91.6196 79.567 92.5378 79.567C93.1809 79.5666 93.8177 79.6929 94.4119 79.9388C95.0062 80.1846 95.5461 80.5452 96.001 80.9997C96.4558 81.4543 96.8167 81.9941 97.0628 82.5882C97.309 83.1823 97.4357 83.819 97.4357 84.4621C97.4357 85.3803 97.1675 86.2321 96.7277 86.965ZM117.348 86.293L90.707 59.6545L94.4046 55.0857L121.914 82.6036L117.348 86.293ZM133.087 76.0131L100.976 43.9042C100.741 37.7258 102.3 31.5944 105.755 26.4172L150.583 71.2452C145.403 74.7022 139.269 76.2482 133.087 76.0131ZM157.948 70.9327L106.073 19.0551L108.642 16.4858L160.52 68.3634L157.948 70.9327ZM160.818 61.0317L115.971 16.1844C128.12 7.94281 145.378 9.58836 156.396 20.6066C167.412 31.6221 169.06 48.8851 160.818 61.0317ZM156.811 104.447C155.041 94.7585 145.934 92.9 145.934 92.9L128.884 124.398C128.375 120.75 125.507 116.9 121.093 114.508C114.757 111.076 107.63 111.969 105.182 116.494C102.732 121.021 105.882 127.468 112.221 130.902C118.562 134.329 125.684 133.441 128.131 128.914L141.738 103.78C143.179 103.758 145.325 104.618 148.273 107.995C154.449 115.075 162.834 115.874 162.834 115.874C162.834 115.874 158.346 112.865 156.811 104.447Z" fill="url(#paint0_linear_2460_639)"/>
</g>
<g filter="url(#filter1_d_2460_639)">
<path d="M35.8286 79.6472C46.3518 80.4935 55.3677 75.0811 55.9706 67.5642L59.3087 25.8281C61.2198 24.9459 64.6049 24.8242 70.5621 27.6119C83.0267 33.4281 94.7336 29.5451 94.7336 29.5451C94.7336 29.5451 86.9318 28.1651 79.8933 17.7995C71.7872 5.85477 58.4818 8.75591 58.4818 8.75591L54.2947 61.0705C51.4544 56.4768 45.334 53.0142 37.9996 52.4279C27.4792 51.5872 18.4632 56.9995 17.8631 64.5192C17.2629 72.0334 25.2998 78.8092 35.8286 79.6472ZM69.3286 112.481L64.5302 107.682L65.4927 106.72L70.291 111.518L69.3286 112.481ZM71.1041 110.697L66.303 105.896L67.2654 104.933L72.0638 109.734L71.1041 110.697ZM72.8824 108.921L68.0785 104.12L69.041 103.158L73.8449 107.962L72.8824 108.921ZM75.6315 106.178L74.6745 107.14L69.8624 102.342L70.822 101.382L75.6315 106.178Z" fill="url(#paint1_linear_2460_639)"/>
</g>
<path d="M62.5032 107.574L69.4255 114.494L85.8672 98.0552L78.9448 91.1328L62.5032 107.574ZM69.4255 113.534L63.4684 107.577L70.7281 100.317L76.6825 106.275L69.4255 113.534Z" fill="url(#paint2_linear_2460_639)"/>
</g>
<defs>
<filter id="filter0_d_2460_639" x="-4.46875" y="-4.46924" width="185.938" height="185.938" filterUnits="userSpaceOnUse" color-interpolation-filters="sRGB">
<feFlood flood-opacity="0" result="BackgroundImageFix"/>
<feColorMatrix in="SourceAlpha" type="matrix" values="0 0 0 0 0 0 0 0 0 0 0 0 0 0 0 0 0 0 127 0" result="hardAlpha"/>
<feOffset/>
<feGaussianBlur stdDeviation="5"/>
<feComposite in2="hardAlpha" operator="out"/>
<feColorMatrix type="matrix" values="0 0 0 0 0.827451 0 0 0 0 0.215686 0 0 0 0 0.243137 0 0 0 0.5 0"/>
<feBlend mode="normal" in2="BackgroundImageFix" result="effect1_dropShadow_2460_639"/>
<feBlend mode="normal" in="SourceGraphic" in2="effect1_dropShadow_2460_639" result="shape"/>
</filter>
<filter id="filter1_d_2460_639" x="7.83154" y="-1.5542" width="96.9021" height="124.035" filterUnits="userSpaceOnUse" color-interpolation-filters="sRGB">
<feFlood flood-opacity="0" result="BackgroundImageFix"/>
<feColorMatrix in="SourceAlpha" type="matrix" values="0 0 0 0 0 0 0 0 0 0 0 0 0 0 0 0 0 0 127 0" result="hardAlpha"/>
<feOffset/>
<feGaussianBlur stdDeviation="5"/>
<feComposite in2="hardAlpha" operator="out"/>
<feColorMatrix type="matrix" values="0 0 0 0 0.827451 0 0 0 0 0.215686 0 0 0 0 0.243137 0 0 0 0.5 0"/>
<feBlend mode="normal" in2="BackgroundImageFix" result="effect1_dropShadow_2460_639"/>
<feBlend mode="normal" in="SourceGraphic" in2="effect1_dropShadow_2460_639" result="shape"/>
</filter>
<linearGradient id="paint0_linear_2460_639" x1="88.5" y1="5.53076" x2="88.5" y2="171.469" gradientUnits="userSpaceOnUse">
<stop stop-color="#EF286F"/>
<stop offset="1" stop-color="#E85E8F"/>
</linearGradient>
<linearGradient id="paint1_linear_2460_639" x1="56.2826" y1="8.4458" x2="56.2826" y2="112.481" gradientUnits="userSpaceOnUse">
<stop stop-color="#EF286F"/>
<stop offset="1" stop-color="#E85E8F"/>
</linearGradient>
<linearGradient id="paint2_linear_2460_639" x1="74.1852" y1="91.1328" x2="74.1852" y2="114.494" gradientUnits="userSpaceOnUse">
<stop stop-color="#EF286F"/>
<stop offset="1" stop-color="#E85E8F"/>
</linearGradient>
<clipPath id="clip0_2460_639">
<rect width="177" height="177" fill="white"/>
</clipPath>
</defs>
</svg>
