<?xml version="1.0" encoding="UTF-8"?>
<svg xmlns="http://www.w3.org/2000/svg" xmlns:xlink="http://www.w3.org/1999/xlink" version="1.1" viewBox="0 0 512 512">
  <defs>
    <style>
      .cls-1 {
        mask: url(#mask);
      }

      .cls-2 {
        filter: url(#drop-shadow-1);
      }

      .cls-3 {
        filter: url(#drop-shadow-2);
      }

      .cls-4 {
        fill: #fff;
        fill-rule: evenodd;
      }

      .cls-5 {
        mask: url(#mask-1);
      }

      .cls-6 {
        fill: url(#_Безымянный_градиент_32-2);
      }

      .cls-7 {
        stroke: #faeef2;
      }

      .cls-7, .cls-8 {
        fill: none;
        stroke-linejoin: round;
        stroke-width: 39.2px;
      }

      .cls-9 {
        fill: #fefefe;
      }

      .cls-8 {
        stroke: #ef286f;
      }

      .cls-10 {
        fill: #ef286f;
      }

      .cls-11 {
        fill: url(#_Безымянный_градиент_32);
      }
    </style>
    <linearGradient id="_Безымянный_градиент_32" data-name="Безымянный градиент 32" x1="227.6" y1="117.4" x2="330.7" y2="117.4" gradientTransform="translate(674.3 132) rotate(-180) scale(1 -1)" gradientUnits="userSpaceOnUse">
      <stop offset="0" stop-color="#e85e8f"/>
      <stop offset="1" stop-color="#ef286f"/>
    </linearGradient>
    <linearGradient id="_Безымянный_градиент_32-2" data-name="Безымянный градиент 32" x1="72.2" y1="246.3" x2="181.3" y2="246.3" gradientTransform="matrix(1,0,0,1,0,0)" xlink:href="#_Безымянный_градиент_32"/>
    <mask id="mask" x="14.1" y="14.1" width="483.8" height="483.8" maskUnits="userSpaceOnUse">
      <g id="StrokeMask">
        <rect x="33.7" y="33.7" width="444.6" height="444.6"/>
        <path id="Fill" class="cls-4" d="M256,33.7c-122.8,0-222.3,99.5-222.3,222.3,0,122.8,99.5,222.3,222.3,222.3s222.3-99.5,222.3-222.3S378.8,33.7,256,33.7Z"/>
      </g>
    </mask>
    <mask id="mask-1" x="33" y="33" width="445.9" height="445.9" maskUnits="userSpaceOnUse">
      <g id="StrokeMask_2">
        <rect x="52.6" y="52.6" width="406.8" height="406.7"/>
        <path id="Fill_2" class="cls-4" d="M256,52.6c-112.3,0-203.4,91.1-203.4,203.4,0,112.3,91.1,203.4,203.4,203.4s203.4-91,203.4-203.4S368.3,52.6,256,52.6Z"/>
      </g>
    </mask>
    <filter id="drop-shadow-1" filterUnits="userSpaceOnUse">
      <feOffset dx="0" dy="0"/>
      <feGaussianBlur result="blur" stdDeviation="4.8"/>
      <feFlood flood-color="#af1c5f" flood-opacity=".6"/>
      <feComposite in2="blur" operator="in"/>
      <feComposite in="SourceGraphic"/>
    </filter>
    <filter id="drop-shadow-2" filterUnits="userSpaceOnUse">
      <feOffset dx="0" dy="0"/>
      <feGaussianBlur result="blur-2" stdDeviation="4.8"/>
      <feFlood flood-color="#af1c5f" flood-opacity=".6"/>
      <feComposite in2="blur-2" operator="in"/>
      <feComposite in="SourceGraphic"/>
    </filter>
  </defs>
  <!-- Generator: Adobe Illustrator 28.6.0, SVG Export Plug-In . SVG Version: 1.2.0 Build 709)  -->
  <g>
    <g id="_Слой_1" data-name="Слой_1">
      <g id="_Слой-1" data-name="Слой-1">
        <path id="_волны2" data-name="волны2" class="cls-11" d="M384.5,249.5c.1,22,.2,44,.3,66h-2.4c-.8,0-1.6,0-2.4,0,0-21.9,0-43.8,0-65.7,0-43.8.7-65.8,2.1-66,.7-.1,1.4-.2,2.1-.3.1,22,.2,44,.3,66ZM418.6,249.2c0,18.8,0,37.6,0,56.4h-2.4c-.8,0-1.6,0-2.4,0,0-18.7,0-37.4,0-56.1,0-37.4.8-56.2,2.4-56.4.8-.1,1.6-.2,2.4-.3,0,18.8,0,37.6,0,56.4ZM391.7,249.2c0,35.1-.8,52.8-2.4,53-.8.1-1.6.2-2.4.3,0-17.7,0-35.3,0-53,0-17.7,0-35.3,0-53h2.4c.8,0,1.6,0,2.4,0,0,17.6,0,35.1,0,52.7ZM344.3,249.5c0,17.7,0,35.3,0,53h-2.4c-.8,0-1.6,0-2.4,0,0-17.7,0-35.3,0-53,0-17.7,0-35.3,0-53h2.4c.8,0,1.6,0,2.4,0,0,17.7,0,35.3,0,53ZM425.4,249.8c0,12,0,24,0,35.9h-2.4c-.8,0-1.6,0-2.4,0,0-12,0-24,0-35.9,0-12,0-24,0-35.9h2.4c.8,0,1.6,0,2.4,0,0,12,0,24,0,35.9ZM351.2,249.5c0,22.9-.8,34.5-2.4,34.7-.8.1-1.6.2-2.4.3,0-11.6,0-23.1,0-34.7,0-11.6,0-23.1,0-34.7h2.4c.8,0,1.6,0,2.4,0,0,11.5,0,22.9,0,34.4ZM397.9,249.8c0,11.1,0,22.3,0,33.4h-2.1c-.7,0-1.4,0-2.1,0,0-11.1,0-22.3,0-33.4s0-22.3,0-33.4h2.1c.7,0,1.4,0,2.1,0,0,11.1,0,22.3,0,33.4ZM411.7,249.8c0,9.5,0,19,0,28.5h-2.1c-.7,0-1.4,0-2.1,0-.1-9.4-.2-18.8-.3-28.2-.2-18.8.5-28.3,2.1-28.5.8-.1,1.6-.2,2.4-.3,0,9.5,0,19,0,28.5ZM337.4,249.8v28.5h-2.4c-.8,0-1.6,0-2.4,0v-28.5c0-9.5,0-19,0-28.5h2.4c.8,0,1.6,0,2.4,0,0,9.5,0,19,0,28.5ZM378,249.8c0,7,0,14,0,21.1h-2.4c-.8,0-1.6,0-2.4,0,0-7,0-14,0-21.1v-21.1h2.4c.8,0,1.6,0,2.4,0,0,7,0,14,0,21.1ZM357.4,249.8c0,7,0,14,0,21.1h-2.1c-.7,0-1.4,0-2.1,0,0-7,0-14,0-21.1v-21.1h2.1c.7,0,1.4,0,2.1,0,0,7,0,14,0,21.1ZM432.3,249.5c0,8.5-.8,12.8-2.4,13-.8.1-1.6.2-2.4.3,0-4.3,0-8.7,0-13v-13h2.4c.8,0,1.6,0,2.4,0,0,4.2,0,8.5,0,12.7ZM371.1,249.5v10.8h-2.4c-.8,0-1.6,0-2.4,0,0-3.6,0-7.2,0-10.8s0-7.2,0-10.8h2.4c.8,0,1.6,0,2.4,0,0,3.6,0,7.2,0,10.8ZM405.1,249.5c.2,4.3-.5,6.6-2.1,6.8-.8.1-1.6.2-2.4.3-.1-2.2-.2-4.3-.3-6.5-.2-4.3.5-6.6,2.1-6.8.8-.1,1.6-.2,2.4-.3.1,2.2.2,4.3.3,6.5ZM439.2,249.8c0,1.7,0,3.3,0,5h-2.4c-.8,0-1.6,0-2.4,0,0-1.7,0-3.3,0-5,0-1.7,0-3.3,0-5h2.4c.8,0,1.6,0,2.4,0,0,1.7,0,3.3,0,5ZM364.2,250.1v2.8h-2.1c-1.4,0-2.2-.9-2.4-2.8-.1-.9-.2-1.9-.3-2.8.8,0,1.6,0,2.4,0h2.4c0,.9,0,1.9,0,2.8Z"/>
        <g id="_Слой-1-2" data-name="Слой-1">
          <path class="cls-10" d="M238.6,148.3c-5.2.6-9,1.2-11.6,1.8-2.5.6-5.4,1.4-8.5,2.5-3.1,1.1-6.9,2.7-11.4,5-4.5,2.3-8.8,4.8-13,7.5-4.2,2.7-7.5,5.4-9.8,7.9-2.3,2.5-4.3,5.2-5.9,8.1-1.6,2.8-2.8,5.9-3.7,9.3-.9,3.3-1.3,6.8-1.3,10.4s.3,6.4.9,8.4c.6,2,1.6,3.3,2.9,4,1.4.7,2.1,1.2,2.3,1.6.2.4,0,1.1-.4,2.2-.5,1.1-.7,2.2-.7,3.4s.3,2.6,1,4.3c.7,1.7,1.3,2.8,1.9,3.4.6.6,1.3,1,2.2,1.2.9.2,1.5.4,1.8.7.3.3.4.8.4,1.5s-.2,1.4-.7,2.2c-.5.8-.7,1.6-.7,2.4s.3,2,.9,3.5c.6,1.6,1.2,2.7,1.8,3.5.6.8,1.6,1.5,2.9,2.1,1.4.6,2,1.2,2,1.9s-.2,1.4-.7,2.2c-.5.8-.7,1.6-.7,2.4s.2,1.9.7,3.2c.5,1.4,1.1,2.5,1.8,3.5.7,1,1.5,1.6,2.5,1.9,1,.3,1.7.7,2,1.2.4.5.5,1,.4,1.6,0,.6-.3,1.1-.7,1.6-.4.5-.6,1.3-.6,2.5s.3,2.5.9,4c.6,1.5,1,2.5,1.3,2.9.3.5,1.1,1,2.5,1.6,1.4.6,2.2,1.1,2.5,1.5.3.4.1,1.3-.4,2.6-.6,1.4-.9,2.4-.9,2.9s.3,1.7.9,3.2c.6,1.6,1.2,2.8,1.9,3.7.7.9,1.7,1.6,2.9,2.2,1.3.6,1.9,1.2,1.9,1.8s-.2,1.3-.7,2.1c-.5.8-.7,1.6-.7,2.5s.4,2.3,1.2,4.1c.8,1.9,1.6,3.1,2.3,3.7.8.6,1.2,1.1,1.3,1.6,0,.5.1,9.2.1,26s.2,26,.6,27.5c.4,1.5,1,2.8,1.8,4,.8,1.2,1.9,2.4,3.2,3.5,1.4,1.2,3.1,2.4,5.3,3.7,2.1,1.3,4.2,2.4,6.3,3.2,2,.9,4.1,1.4,6.1,1.6,2,.2,5.5,0,10.4-.6,2.4-.3,4.9-.6,7.3-.9v65.9h2v-66.5h1.5v66.5h5.6v-30.1c0-20.1.3-30.7.9-31.8.6-1.1,1.2-1.7,1.9-1.8.7,0,1.2,0,1.6.3.4.3.8,1.2,1.2,2.6.4,1.5.6,12,.7,31.5,0,9.8,0,19.5.1,29.3h.6c.4,0,.6-.1.7-.4,0-.3.3-9.6.7-27.9.2-9.2.4-18.3.6-27.5.2,0,.4.2.6.3.4.2.6,9.5.6,27.9v27.6h1.8v-35c0-23.3,3.5-35.9,10.5-37.7,7-1.8,11-2.9,11.9-3.4.9-.5,1.8-1.2,2.6-2.1.9-.9,1.6-1.8,2-2.8.5-1,.9-2.2,1.2-3.5.3-1.4.4-8.1.4-20.1s2.8-19.3,8.5-21.8c5.7-2.5,9.4-4.3,11.1-5.4,1.8-1.2,3.3-2.4,4.5-3.5,1.3-1.2,2.7-2.9,4.2-5.1,1.6-2.3,2.7-4.4,3.5-6.3s1.4-3.9,1.8-5.9c.4-2,.6-4.2.6-6.6s-.2-4.5-.6-6c-.4-1.6-1-2.6-1.8-3.2-.8-.6-1.7-.9-2.6-.9h-1.5v-.9c0-.6.3-1.7.9-3.4.6-1.7.6-3.4.1-5.3-.5-1.9-1.2-3.2-2-4-.9-.8-1.9-1.2-3.1-1.2h-1.8c.3-1,.7-2,1-2.9.7-2,.9-3.7.6-5.3-.3-1.6-.8-2.9-1.6-4.1-.8-1.2-1.9-1.9-3.4-2.1-.7,0-1.5-.2-2.2-.3.3-.7.6-1.5.9-2.2.6-1.5.9-2.9.9-4.3s-.3-2.7-.9-4.1c-.6-1.4-1.1-2.3-1.5-2.6-.4-.4-1.3-.7-2.8-1-.7-.1-1.5-.3-2.2-.4.3-.9.7-1.8,1-2.6.7-1.8,1-3.1.9-4.1,0-1-.5-2.3-1.3-4-.8-1.7-1.5-2.7-2.2-3.1s-1.6-.6-2.6-.7c-1.1,0-1.6-.3-1.6-.7s.3-1.1.9-2.1c.6-1,.9-2.2.9-3.5s-.2-2.6-.6-3.7c-.4-1.1-.9-2-1.6-2.8-.7-.8-1.8-1.3-3.2-1.6-.7-.1-1.5-.3-2.2-.4.3-.6.6-1.2.9-1.8.6-1.2,1-2.3,1.2-3.4.2-1.1,0-2.5-.6-4.1-.6-1.7-1.1-2.7-1.5-3.2-.4-.5-1.4-.9-3.1-1.3-.8-.2-1.7-.4-2.5-.6.3-.8.7-1.6,1-2.4.7-1.6,1-2.8,1-3.8s-.6-3-1.9-6.2c-1.3-3.1-2.3-5.4-3.2-6.9-.9-1.5-2.5-3.3-4.8-5.6-2.3-2.3-5.2-4.2-8.5-5.9-3.3-1.7-7.5-2.9-12.4-3.8-5-.9-10-1.5-15.1-1.8-5.1-.3-10.2-.1-15.4.4ZM249.9,149.5c.8.2,1.6.5,2.3.7,1.6.5,3.1,1.3,4.5,2.4,1.5,1.1,2.9,2.5,4.4,4.3,1.5,1.8,2.8,3.7,4,5.9,1.2,2.2,2,3.4,2.5,3.8.5.4,1.1.4,1.9,0,.8-.4,1.2-.9,1.2-1.6s-.2-1.5-.6-2.5c-.4-1-1.3-2.5-2.6-4.6-1.4-2.1-2.6-3.6-3.8-4.7-1.2-1.1-2.1-1.8-2.8-2.1-.3-.1-.7-.3-1-.4,0,0,0-.2.1-.3,0-.2.8,0,2,.3,1.3.4,2.8,1.3,4.7,2.8,1.9,1.5,4,4.2,6.4,8.1s3.9,5.9,4.4,6c.5,0,1,0,1.5-.4.5-.4.7-1.1.6-2.1s-.9-2.7-2.3-5.3c-1.5-2.5-2.8-4.4-4-5.4-1.2-1.1-2.1-1.8-2.8-2.1-.3-.1-.7-.3-1-.4.2,0,.5,0,.7-.1.5,0,1.6.3,3.2,1.2,1.7.9,3.1,1.9,4.2,2.9,1.2,1.1,2.8,3.4,5,7.1,2.1,3.6,3.6,5.4,4.2,5.4s1.2-.3,1.6-1c.4-.7.2-2-.6-3.8-.8-1.9-1.8-3.4-2.9-4.7-.6-.6-1.2-1.3-1.8-1.9,0,0,.2,0,.3-.1.2,0,1.6,1,4.1,3.2,2.5,2.3,4.5,4.6,6,7.1,1.5,2.5,2.5,4.8,3.2,6.9.7,2.2.9,3.4.6,3.7-.3.3-2.3.4-6.1.4s-6,.3-6.6,1c-.6.7-.9,1.5-.9,2.5s.2,1.8.6,2.4c.4.6.9,1,1.6,1.3.7.3,3.3.5,7.9.7,4.6.2,7.1.5,7.6.9.5.4.9,1.1,1.3,2.1.4,1,.5,1.9.3,2.6-.2.8-2.1,1.2-5.7,1.2s-5.8.3-6.4.9c-.7.6-1.1,1.5-1.2,2.6,0,1.2,0,2.1.6,2.8.5.7,1,1.1,1.5,1.3.5.2,2.6.3,6.4.3s6.1,0,7,.1c.9,0,1.6.3,2,.7.5.4.9,1.1,1.3,2.1.4,1,.5,1.8.4,2.5,0,.7-2,1.1-5.7,1.3-3.7.2-5.9.6-6.6,1.2-.7.6-1.1,1.5-1.2,2.6,0,1.2,0,2.1.6,2.8.5.7,1,1.1,1.5,1.3.5.2,3,.2,7.5.1,4.5,0,7,0,7.6.4.6.4,1.1,1.2,1.6,2.5.5,1.3.7,2.1.6,2.5,0,.4-1.1.8-3.1,1.3-2,.5-3.2,1.1-3.7,1.9-.5.8-.7,1.6-.6,2.5,0,.9.3,1.6.7,2.1.4.5,1,.9,1.8,1.2.8.3,2.4.4,4.8.4s4,.5,4.5,1.6c.6,1.1.9,2,1,2.8,0,.8,0,1.3-.3,1.6-.3.3-2.2.6-5.9,1-3.6.4-5.7.9-6.3,1.6-.6.7-.9,1.5-.9,2.5s.4,1.9,1.2,2.6c.8.8,3.5,1,8,.7,4.6-.3,7.1-.3,7.6,0,.5.3,1,1.1,1.6,2.5.6,1.4.8,2.3.7,2.8,0,.5-2.1,1.1-6,1.8-3.9.7-6.1,1.4-6.6,2.1-.5.7-.7,1.5-.7,2.5s.4,1.9,1.3,2.6c.9.8,3.1,1,6.7.6,3.6-.4,6-.5,7.3-.3,1.3.2,2.2.9,2.8,2.2.6,1.3.9,2.2.9,2.8s-.2,1-.6,1.3c-.4.3-2.3.7-5.9,1.3-3.5.6-5.5,1.2-6,1.8-.5.6-.7,1.4-.7,2.5s.4,2,1.3,2.8c.9.8,3.5.9,7.9.4,4.4-.5,6.8-.6,7.2-.3.4.3.7.9,1,1.9.3,1,.4,3,.4,6.2s-.6,6.4-1.8,9.9c-1.2,3.4-2.2,5.9-3.2,7.4-1,1.5-2.2,3-3.8,4.6-1.6,1.6-3.5,3-5.7,4.4-2.2,1.4-5.5,2.7-9.8,4.1-4.3,1.4-9.1,2.6-14.3,3.7-5.3,1.1-9.4,1.8-12.3,2.1-2.9.3-6.3.4-10.2.3-3.9,0-7-.5-9.2-1.2-2.2-.7-4.6-1.9-7.2-3.5-2.5-1.7-4.6-3.4-6.1-5.1-1.6-1.8-3.1-4.1-4.7-6.9-1.6-2.8-4.1-9-7.8-18.4-3.6-9.4-5.4-15.3-5.4-17.8v-3.7c.1.1.3.3.4.4.3.3,2.6,6,6.9,17.2,4.3,11.2,6.9,17.6,7.8,19.4.9,1.8,2,3.5,3.2,5.3,1.3,1.8,2.8,3.4,4.5,5,1.8,1.6,3.3,2.7,4.7,3.5,1.4.8,3,1.5,5,2.1,2,.6,3.8.7,5.6.4,1.8-.3,2.9-.8,3.5-1.6.6-.8.9-1.4.9-1.9s-.4-1-1.3-1.6c-.9-.6-2-1.7-3.5-3.2-1.5-1.6-3-3.7-4.5-6.5-1.6-2.7-2.6-5-3.2-6.6-.3-.8-.6-1.7-.9-2.5-1.3.6-2.5,1.3-3.8,1.9-2.5,1.3-4.3,2-5.4,2.1-1.1,0-2-.1-2.8-.7-.8-.6-1.3-1.4-1.5-2.4,0-.5-.2-1-.3-1.5.3.3.6.7.9,1,.6.7,1.4,1.1,2.3,1.3,1,.2,5.3-1.6,12.9-5.3,7.6-3.7,12.9-6,16-6.8,3-.8,7.9-1.6,14.6-2.5,6.7-.9,10.5-1.8,11.4-2.6.9-.9,1.3-1.8,1.2-2.6,0-.9-.3-1.6-.7-2.1-.4-.5-.8-.9-1.3-1.2-.5-.3-1.2-.5-2-.6-.9,0-5.7.6-14.3,2.1-8.7,1.5-14.1,2.6-16.2,3.4-2.1.8-5,2.1-8.5,4-3.5,1.9-5.5,2.7-5.9,2.6-.4,0-1-1.2-1.8-3.2-.4-1-.8-2.1-1.2-3.1-1.3.7-2.6,1.4-4,2.1-2.6,1.4-4.5,2.1-5.6,2.1s-2-.4-2.8-1.2c-.8-.8-1.1-1.5-1-2.2,0-.3,0-.7.1-1,.4.4.8.8,1.2,1.2.8.8,1.6,1.2,2.3,1.2s4.3-1.7,10.7-5c6.3-3.3,10.5-5.3,12.4-6,2-.7,4.1-1.3,6.6-1.8,2.4-.5,7-1.1,13.8-1.8,6.7-.7,10.4-1.4,11.1-2.1.7-.7,1-1.5,1-2.4s-.2-1.7-.7-2.4c-.5-.7-1-1.2-1.6-1.5-.6-.3-1.5-.4-2.8-.4s-4.6.3-10,.9c-5.4.6-9.5,1.2-12.4,1.8-2.9.6-5.5,1.3-7.8,2.1-2.2.8-5.1,2.1-8.5,4-3.4,1.9-5.3,2.7-5.7,2.5-.4-.2-.9-1.3-1.6-3.2-.3-1-.7-2-1-2.9-1.5.7-3,1.5-4.5,2.2-3,1.5-5,2.1-6,1.9-1-.2-1.7-.6-2.2-1.2-.5-.6-.8-1.3-.9-2.1,0-.4,0-.8-.1-1.2.4.4.9.8,1.3,1.2.9.8,1.8,1.2,2.6,1.2s4.3-1.6,10.2-4.9c6-3.2,9.9-5.2,11.7-5.9,1.9-.7,3.9-1.3,6.1-1.8,2.2-.5,7-1,14.2-1.5,7.2-.5,11.2-1,12-1.5.8-.5,1.3-1,1.5-1.5.2-.5.1-1.3-.1-2.4-.3-1.1-.9-1.9-1.8-2.5-.9-.6-5-.6-12.3-.1-7.3.5-12.9,1.2-16.8,2.2-3.9,1-8,2.5-12.4,4.7-2.2,1.1-4.4,2.2-6.6,3.2-1.5-3.8-2.9-7.6-4.4-11.5-1.5-3.8-2.9-7.6-4.4-11.5-1.4.8-2.7,1.6-4.1,2.4-2.7,1.6-4.5,2.4-5.3,2.4s-1.6-.3-2.3-.9c-.8-.6-1.3-1.4-1.5-2.4,0-.5-.2-1-.3-1.5.4.4.8.8,1.2,1.2.8.8,1.7,1.2,2.8,1.2s3.7-1.2,7.8-3.7c4.1-2.5,7.9-4.4,11.3-5.9,3.4-1.5,6.4-2.5,9.1-2.9,2.6-.5,7.7-.8,15.1-.9,7.4,0,11.5-.5,12.1-1.2.7-.7.9-1.7.7-2.9-.2-1.3-.7-2.2-1.5-2.8-.8-.6-3-.9-6.6-1-3.6,0-7.4,0-11.3,0-3.9,0-7.4.4-10.4,1-3,.6-5.5,1.2-7.5,1.9-2,.7-4.5,1.9-7.6,3.7-3.1,1.8-4.8,2.6-5.1,2.6s-.5-.2-.7-.6c-.2-.4-.6-1.5-1.2-3.2-.3-.9-.6-1.8-.9-2.6-1.4.8-2.8,1.6-4.2,2.4-2.8,1.6-4.7,2.3-5.7,2.2-1,0-1.7-.3-2.2-.7-.5-.4-.8-1.1-1-2.2,0-.5-.2-1.1-.3-1.6.4.4.8.8,1.2,1.2.8.8,1.7,1.2,2.6,1.2s3.6-1.3,7.8-3.8c4.2-2.5,8.1-4.6,11.7-6,3.6-1.5,6.6-2.4,8.9-2.8,2.3-.4,7.3-.5,14.8-.4,7.5,0,11.6-.1,12.3-.7.7-.6,1-1.4,1-2.4s-.3-1.9-1-2.8c-.7-.9-1.3-1.4-1.8-1.6-.5-.2-2-.3-4.5-.4s-6.2-.1-11.1-.1-8.5.2-10.8.6c-2.3.4-5,1.1-7.9,2.1-2.9,1-5.8,2.3-8.6,4-2.8,1.7-4.4,2.5-4.7,2.5s-.8-1.1-1.6-3.4c-.4-1.1-.8-2.3-1.2-3.4-1.4.8-2.8,1.7-4.2,2.5-2.8,1.7-4.7,2.5-5.7,2.4-1,0-1.8-.4-2.3-1-.6-.6-.9-1.3-1-2.2,0-.4,0-.9-.1-1.3.4.4.8.8,1.2,1.2.8.8,1.7,1.2,2.8,1.2s3.6-1.3,7.6-3.8c4-2.5,7.9-4.6,11.6-6,3.7-1.5,6.8-2.4,9.2-2.8,2.4-.4,7.4-.4,14.9-.1,7.5.3,11.6.2,12.1-.1s1-.8,1.2-1.3c.2-.5.2-1.1.1-1.9s-.3-1.5-.7-2.1c-.4-.6-.9-1.1-1.6-1.5-.7-.4-4.8-.7-12.3-1-7.5-.3-12.5-.2-14.9.1s-4.8.9-7,1.6c-2.2.7-4.5,1.6-6.9,2.6-2.3,1.1-4.1,2.1-5.4,2.9-1.3.9-2,1.3-2.2,1.2-.2,0-.7-1.2-1.5-3.4-.8-2.2-1.3-4.4-1.5-6.8-.2-2.4,0-4.6.6-6.6.6-2.1,1.2-3.5,1.9-4.3.7-.8,1.3-1.3,1.9-1.6.6-.3,1.6-.4,2.9-.4s2.8.5,4.2,1.6c1.5,1.1,3,3,4.5,5.7,1.6,2.7,2.4,4.5,2.6,5.3.2.8,1.9.9,5,.4,1.6-.2,3.1-.5,4.7-.7-.7-1.6-1.4-3.1-2-4.7-1.4-3.1-3.1-6-5.1-8.7-2-2.6-4-4.5-5.7-5.4-1.8-1-3.1-1.6-4.1-1.8-1-.2-2.1-.2-3.5-.1-.7,0-1.4,0-2,.1,0,0,0-.2.1-.3,0-.2,1-.5,2.6-.9,1.7-.4,3.1-.6,4.2-.6s2.7.3,4.5,1c1.9.7,3.7,1.8,5.4,3.4,1.8,1.6,3.3,3.6,4.7,6,1.4,2.5,2.4,3.8,3.2,4.1.8.3,1.4.3,1.8,0,.4-.3.6-.7.7-1.3,0-.6-.2-1.8-1-3.7-.8-1.9-1.9-3.6-3.2-5.3-1.4-1.7-2.9-3-4.7-4-.9-.5-1.8-1-2.6-1.5.2,0,.4,0,.6-.1.4,0,1,0,1.9.3.9.3,2,.8,3.2,1.5,1.3.7,2.5,1.6,3.8,2.8,1.3,1.2,2.9,3.4,5,6.8,2,3.3,3.4,5,4,5.1.6,0,1.1,0,1.5-.3.4-.3.5-1,.4-2.1,0-1.1-.7-2.6-1.8-4.7-1.1-2.1-2.1-3.7-3.2-4.9-1.1-1.2-2.4-2.3-4.1-3.4-.8-.5-1.7-1.1-2.5-1.6ZM216.8,155.4h.3c0,0,0,.2-.1.3,0,.2-1.5,1.1-4.1,2.6-2.6,1.6-4.7,3.1-6.1,4.6-1.5,1.5-2.5,3-3.2,4.6-.7,1.6-1,3.4-1,5.4s.2,4,.7,5.7c.5,1.8,3.8,10.4,10,25.9,6.1,15.5,9.4,23.9,9.7,25.1.1.6.3,1.3.4,1.9h-1.3c-.9,0-1.4-.1-1.6-.4-.2-.3-3.5-8.7-10-25.1-6.4-16.5-9.9-25.5-10.2-27.2-.4-1.7-.6-3.5-.6-5.4s.2-3.7.7-5.1c.2-.7.5-1.5.7-2.2-1.9,1.2-3.7,2.4-5.6,3.5-3.7,2.4-6.3,4.3-7.9,5.9s-3,3.4-4.4,5.4c-1.4,2.1-2,3.2-1.9,3.4,0,0,0,.2.1.3.2-.2.5-.4.7-.6.5-.4,1.2-.6,2-.7.9,0,1.6,0,2,.1.5.2,1,.6,1.5,1.2.5.6.8,1.6,1,3.1.2,1.5,0,3-.6,4.6-.6,1.6-1.5,2.8-2.6,3.7-1.2.9-2.1,1.3-2.9,1.3s-1.6-.3-2.3-.9c-.8-.6-1.4-1.3-1.8-2.2-.2-.4-.4-.9-.6-1.3-.1,1-.3,2-.4,2.9-.3,2-.3,4.5-.1,7.5,0,1.5.2,3,.3,4.6,2.2-1.1,4.5-2.2,6.7-3.2,4.5-2.2,6.8-3.2,7-3.1,0,0,.2,0,.3.1-2.3,1.4-4.6,2.8-6.9,4.3-4.6,2.8-7.1,4.3-7.6,4.3s-.8-.1-1-.4c-.2-.3-.4-1.5-.7-3.7-.3-2.2-.4-4.4-.3-6.8s.5-5,1.3-8.1c.8-3,1.6-5.4,2.3-7.1.8-1.7,1.9-3.5,3.2-5.4,1.4-2,2.9-3.8,4.5-5.4,1.7-1.7,4-3.5,6.9-5.4,2.9-2,6.4-4.1,10.5-6.3,4.1-2.3,7.2-3.8,9.4-4.7,2.1-.9,3.3-1.3,3.5-1.3ZM225,165.4c-.8.8-1.3,1.8-1.6,2.9-.3,1.2-.4,2.6-.3,4.3,0,1.7.4,3.4.9,5.3.2.9.5,1.9.7,2.8.6-.3,1.2-.6,1.8-.9,1.2-.6,1.3-2.5.4-5.6-.9-3.1-1.2-5.6-1-7.4,0-.9.2-1.8.3-2.6-.4.4-.8.8-1.2,1.2ZM193.5,176.8c.7,0,1.1,0,1.3.3.2.2.3.8.4,1.9,0,1.1-.1,2-.7,2.8-.6.8-1.3,1.2-2,1.3-.8,0-1.4,0-1.8-.6-.4-.5-.6-1-.6-1.6s.1-1.2.4-1.9c.3-.7.7-1.2,1.2-1.6.5-.4,1.1-.6,1.8-.6ZM246.2,187.4c-2.6.6-4.7,1.3-6.3,2.2-.8.4-1.6.9-2.3,1.3,1.6-.3,3.1-.7,4.7-1,3.1-.7,7.4-1.2,12.7-1.5,2.7-.1,5.4-.3,8-.4-1.1-.2-2.2-.5-3.4-.7-2.2-.5-4.4-.7-6.4-.7s-4.4.3-7,.9ZM230.8,191c-1,.6-1.2,1.7-.6,3.4.3.8.6,1.7.9,2.5.6-.3,1.3-.6,1.9-.9,1.3-.6,1.6-1.7,1-3.4-.6-1.7-1-2.5-1.3-2.5s-.9.3-1.9.9ZM204.2,200.4c.2.1.5.3.7.4.5.3.8.7,1,1.2.2.5.3,1.1.3,1.8s-.1,1.3-.4,1.9c-.3.6-4.1,3.1-11.4,7.5-7.3,4.4-11.1,7-11.4,7.8-.3.8-.2,1.8.1,2.9.2.6.4,1.2.6,1.8-.2,0-.5,0-.7.1-.5,0-1.1-.8-1.8-2.6-.7-1.9,2.7-5.1,10.1-9.6,7.4-4.5,11.5-7.2,12.1-8.1.7-.9,1.1-1.7,1.2-2.4,0-.7,0-1.3-.1-1.9,0-.3-.2-.6-.3-.9ZM196,201.8c0,.1,0,.3-.1.4,0,.3-.8.9-2.2,1.8-1.4.9-3.8,2.3-7.3,4.1-1.8.9-3.5,1.9-5.3,2.8,2.5-1.5,5-3,7.5-4.6,2.5-1.5,5-3,7.5-4.6ZM252.2,203.7c-2.7.7-4.8,1.4-6.1,2.2-.7.4-1.4.8-2,1.2,2-.4,3.9-.8,5.9-1.2,3.9-.8,8-1.3,12.4-1.6,2.2-.1,4.4-.3,6.6-.4-.8-.2-1.7-.4-2.5-.6-1.7-.4-3.8-.6-6.3-.6s-5.2.3-7.9,1ZM237.3,207.3c-1.2.7-1.5,1.9-.9,3.5.3.8.6,1.7.9,2.5.7-.3,1.5-.7,2.2-1,1.5-.7,1.9-1.9,1.3-3.5-.6-1.7-1-2.5-1.3-2.5s-1,.3-2.2,1ZM203,215.7v.3c0,.2-.6.7-1.8,1.5-1.2.8-3.7,2.3-7.6,4.4-2,1.1-3.9,2.2-5.9,3.2.8-.6,1.6-1.2,2.3-1.8,1.6-1.2,4.1-2.7,7.6-4.7,1.8-1,3.5-2,5.3-2.9ZM210.3,216.3c.3.3.7.7,1,1,.7.7.9,1.7.7,2.9-.2,1.3-4.1,4.2-11.7,8.7-7.6,4.5-11.5,7.1-11.7,7.6-.2.6,0,1.5.4,2.8.2.6.5,1.3.7,1.9-.2,0-.5,0-.7.1-.5,0-1.1-.5-1.8-1.9-.7-1.4-1-2.4-1-2.9s3.8-3,11.3-7.4c7.5-4.3,11.6-7,12.3-8.1.7-1.1.9-2.2.7-3.2,0-.5-.2-1.1-.3-1.6ZM260.2,219.6c-3.2.7-5.7,1.5-7.3,2.5-.8.5-1.7,1-2.5,1.5,1.9-.4,3.7-.9,5.6-1.3,3.7-.9,7.8-1.5,12.3-1.9,2.2-.2,4.5-.4,6.7-.6-.4-.1-.9-.3-1.3-.4-.9-.3-2.5-.5-5-.6s-5.3.2-8.5.9ZM293.2,221.4c-.6.5-1,1-1.2,1.6-.2.6-.2,1.6,0,3.1.2,1.5.7,2.7,1.6,3.8.9,1.1,1.6,1.7,2,1.9.5.2,1.2.2,2,.1.9,0,1.6-.4,2-.9.5-.5.8-1.1,1-1.8.2-.7.2-1.7,0-2.9-.2-1.3-.8-2.5-1.8-3.7-1-1.2-2-1.8-3.2-1.9-1.2,0-2,0-2.6.6ZM243.9,223.5c-1.3.7-1.6,1.9-1,3.7.3.9.6,1.8.9,2.6.7-.4,1.5-.8,2.2-1.2,1.5-.8,2-2,1.5-3.5-.5-1.6-.9-2.4-1.2-2.5-.3,0-1.1.2-2.3.9ZM296.1,222.9c.8,0,1.5.5,2,1.3.6.8.9,1.6,1,2.4,0,.8,0,1.5-.4,2.2-.4.7-.9,1-1.5,1h-.9c.2,0,.4-.2.6-.3.4-.2.7-.7.9-1.6.2-.9.2-1.6,0-2.2s-.5-1.1-1-1.6c-.5-.5-1-.7-1.5-.7h-.7c0,0,0-.2.1-.3,0-.2.5-.2,1.3-.1ZM272.2,223.6c-4,.2-7.9.7-11.7,1.6-3.8.9-7.3,2.1-10.4,3.5-3.1,1.5-5,2.5-5.6,3.2-.6.7-.9,1.5-.9,2.5s.3,1.9,1,2.6c.7.8,1.5,1.2,2.3,1.3.9,0,2.5-.5,5-1.8,2.4-1.3,4.7-2.3,6.9-2.9,2.1-.7,4-1.2,5.7-1.5,1.7-.3,4.8-.5,9.5-.7,4.7-.2,7.4-.7,8.2-1.5.8-.8,1.2-1.7,1.2-2.8s-.4-2-1.2-2.6c-.8-.7-1.7-1.1-2.6-1.2-1,0-3.5,0-7.5.1ZM209.2,231.8h.3c0,0,0,.2-.1.3,0,.2-.7.6-1.8,1.3-1.1.7-3.6,2.1-7.6,4.3-2,1.1-4,2.2-6,3.2.9-.6,1.8-1.3,2.6-1.9,1.8-1.3,4.2-2.8,7.5-4.6,3.2-1.8,4.9-2.6,5.1-2.6ZM224.7,233.3c.9,0,1.9.2,2.8.3,1.9.2,3.1.6,3.8,1.2.7.6,1.2,1.4,1.6,2.4.4,1,.6,21.9.6,62.7s.2,61.8.7,62.9c.5,1.2,1.1,2.2,1.8,2.9.7.8,1.6,1.5,2.6,2.1,1.1.6,2.5.9,4.2,1,1.8,0,9.7-1.1,23.7-3.7,14-2.5,21.8-4.1,23.3-4.7,1.5-.6,2.8-1.4,4-2.5,1.2-1.1,2.2-2.6,3.1-4.6.9-2,1.3-8.1,1.3-18.4s.6-15.7,1.9-16.2c1.3-.5,2-.7,2.2-.6.2,0,.2,6.6.1,19.4,0,12.8-.4,20-1,21.3-.6,1.4-1.4,2.5-2.5,3.5-1.1,1-5.1,2.4-12.1,4.3-7,1.9-16,3.8-26.9,5.7-10.9,2-17,2.9-18.3,2.9s-2.5-.1-3.7-.4c-1.2-.3-2.1-.6-2.9-1-.8-.4-1.7-1.2-2.8-2.5-1.1-1.3-1.9-3-2.5-5.3-.6-2.3-.9-24.2-.9-65.7s-.2-62.7-.6-63.5c-.4-.8-1.1-1.6-2-2.4-.5-.4-1-.8-1.5-1.2ZM266.8,235.7c-2.7.6-5.1,1.5-7.2,2.6-1,.6-2,1.2-3.1,1.8,1.9-.5,3.8-1,5.7-1.5,3.8-1,7.9-1.7,12.3-2.2,2.2-.2,4.4-.5,6.6-.7-.5-.1-1.1-.3-1.6-.4-1.1-.3-2.8-.4-5.1-.4s-4.9.3-7.6.9ZM221.6,238.5c1.3.3,2.2.8,2.8,1.5.6.7.9,2.2,1,4.6,0,1.2,0,2.4.1,3.5h-2.8c-1.9,0-3.4.3-4.7.9-.6.3-1.3.6-1.9.9v-4.3c0-2.8.2-4.7.7-5.4.5-.8,1.1-1.3,1.8-1.6.7-.3,1.7-.3,2.9,0ZM250.9,239.6c-.7.5-1.3.7-1.9.7h-.9c.3.9.7,1.9,1,2.8.3.9.7,1.9,1,2.8.7-.4,1.5-.8,2.2-1.2,1.5-.8,1.9-2,1.3-3.5-.6-1.6-1-2.4-1.3-2.4s-.8.2-1.5.7ZM213,239.5c0,.3,0,.6.1.9,0,.6-2.7,2.5-8.5,5.6-5.8,3.1-8.8,5-9.2,5.4-.4.5-.6,1-.6,1.6s.2,1.4.6,2.4c.2.5.4,1,.6,1.5h-1c-.7,0-1.3-.7-1.9-2.2-.6-1.5-.8-2.4-.7-2.8s3.6-2.5,10.4-6.5c3.4-2,6.8-3.9,10.2-5.9ZM213,249.5c0,0,.2.2.3.3-.4.2-.8.5-1.2.7-.8.5-2.9,1.6-6.4,3.4-1.8.9-3.5,1.8-5.3,2.6,2-1.2,4.1-2.5,6.1-3.7,4.1-2.5,6.2-3.6,6.4-3.4ZM272.8,252c-2.8.7-5.2,1.6-7,2.8-.9.6-1.9,1.2-2.8,1.8,1.7-.5,3.3-1,5-1.5,3.3-1,7.4-1.8,12.1-2.5,2.4-.3,4.8-.7,7.2-1-.1,0-.3-.2-.4-.3-.3-.2-2-.3-5.1-.3s-6.1.3-8.9,1ZM256.6,256.1c-1.2.7-1.5,1.9-.9,3.5.3.8.6,1.7.9,2.5.6-.3,1.3-.6,1.9-.9,1.3-.6,1.8-1.5,1.5-2.6-.3-1.2-.6-2.1-1-2.6-.4-.6-1.2-.5-2.3.1ZM213,258.9v.9c0,.6-2,2-5.9,4.1-3.9,2.2-5.9,3.6-6,4.4,0,.8,0,1.7.4,2.6.2.5.4,1,.6,1.5-.3,0-.6,0-.9.1-.6,0-1.2-.8-1.9-2.6-.7-1.9,1.4-4.2,6.3-6.9,2.4-1.4,4.9-2.7,7.3-4.1ZM219.6,258.9c.7,0,1.4.2,2.2.6.8.4,1.6,1.1,2.5,2.2.9,1.1,1.3,8.6,1.3,22.5s0,21-.3,21.2c-.2.2-.6.3-1.3.3s-1.6-.3-2.6-.9c-1.1-.6-2-1.2-2.6-1.9s-1.3-1.6-1.8-2.6c-.5-1.1-.7-7.4-.7-19s0-17.8.3-18.8c.2-1,.6-1.8,1.2-2.5.6-.7,1.2-1,1.9-1ZM280.7,267.9c-3.2.7-5.5,1.3-6.7,1.9-1.3.6-2.4,1.3-3.4,2.1-.5.4-1,.8-1.5,1.2,1.9-.6,3.8-1.2,5.7-1.8,3.8-1.2,7.8-2.1,12-2.8,2.1-.3,4.2-.7,6.3-1,0,0,0-.2-.1-.3,0-.2-1.4-.3-3.8-.3s-5.3.3-8.5,1ZM213,268.3v.6c0,.4-1.1,1.1-3.2,2.1-1.1.5-2.1,1-3.2,1.5,1.1-.7,2.1-1.4,3.2-2.1,1.1-.7,2.1-1.4,3.2-2.1ZM262.4,272.7c-1,.6-1.2,1.7-.6,3.2.3.8.6,1.6.9,2.4.6-.2,1.3-.5,1.9-.7,1.3-.5,1.6-1.6,1-3.2-.6-1.7-1-2.5-1.3-2.5s-.9.3-1.9.9ZM213,278h.3v.7c0,.5-1,1.3-3.1,2.5-2,1.2-3.1,2.2-3.1,2.9s.2,1.6.6,2.5c.2.4.4.9.6,1.3-.3,0-.6,0-.9.1-.6,0-1.2-.8-1.9-2.6s.3-3.6,3.1-5.1c2.7-1.6,4.2-2.4,4.4-2.4ZM235.2,280.1c.3.3.7.7,1,1,.7.7,1,1.6.9,2.6,0,1.1-.3,1.8-.7,2.2-.4.4-.7.6-.9.6h-.3c0-.9.2-1.8.3-2.6.2-1.8.2-2.8,0-3.2,0-.2-.2-.4-.3-.6ZM329.5,282.3c-.4.3-.7,1.8-.9,4.4-.2,2.6-.6,4.9-1.2,6.8-.6,1.9-1.6,4-3.1,6.3-1.5,2.4-3,4.2-4.5,5.6-.8.7-1.6,1.4-2.3,2.1,1.1-.6,2.2-1.3,3.4-1.9,2.2-1.3,3.9-2.5,5-3.5,1.1-1.1,2.1-2.5,3.2-4.4,1.1-1.9,2-3.9,2.6-6.2.7-2.3,1-4.2,1-5.9s-.2-2.7-.6-3.1c-.4-.4-.8-.6-1.3-.6s-.9.1-1.3.4ZM278.8,284.8c-2,.7-3.9,1.4-5.9,2.1.6,1.7,1.2,3.3,1.8,5,1.2,3.3,2.1,5.8,2.9,7.4.8,1.6,1.6,2.7,2.3,3.5.8.8,1.7,1.1,2.8,1,1.1,0,2-.6,2.8-1.5.8-.9,1.5-2,2-3.4.6-1.4.9-3.1,1-5.1,0-2.1,0-3.8-.3-5.3-.3-1.5-.6-2.8-1-4-.4-1.2-.9-1.8-1.6-1.8s-3,.7-6.9,2.1ZM321.3,284.1c-.4.5-.6,2.1-.7,4.7,0,2.6-.4,5-1,6.9-.6,2-1.6,4.1-3.1,6.5-1.5,2.4-3,4.3-4.5,5.9-.8.8-1.6,1.6-2.3,2.4,1-.6,2-1.2,2.9-1.8,2-1.2,3.7-2.5,5.3-4.1,1.6-1.6,2.9-3.4,4.1-5.4,1.2-2.1,2-3.7,2.3-5,.4-1.3.6-2.8.7-4.7s0-3.2-.1-4c-.2-.8-.4-1.3-.7-1.6-.3-.3-.7-.4-1.3-.4s-1.1.2-1.5.7ZM313.2,286c-.5.6-.7,2-.7,4.3s-.3,4.5-.9,6.6c-.6,2.2-1.5,4.3-2.8,6.3-1.3,2.1-2.8,4-4.5,5.9-.9.9-1.8,1.9-2.6,2.8,1.2-.8,2.4-1.6,3.7-2.4,2.4-1.6,4.4-3.2,5.9-4.9,1.5-1.7,2.5-3.1,3.2-4.4s1.3-2.7,1.8-4.4c.5-1.7.7-3.4.7-5.3s-.2-3.2-.6-4c-.4-.8-.9-1.2-1.5-1.3-.6,0-1.1.1-1.6.7ZM305,286.7c-.5.5-.7,1.9-.6,4.1,0,2.3-.2,4.7-.9,7.2-.7,2.5-1.6,4.8-2.8,6.6-1.2,1.9-2.7,3.8-4.7,5.9-1,1-2,2.1-2.9,3.1.6-.3,1.3-.6,1.9-.9,1.3-.6,2.6-1.4,4.1-2.5,1.5-1.1,2.8-2.3,4-3.5,1.2-1.3,2.1-2.5,2.9-3.8s1.5-2.9,2-4.9c.6-2,.9-3.7.9-5.3s-.1-2.9-.4-4.1c-.3-1.2-.8-1.9-1.6-2.2-.8-.3-1.4-.2-1.9.3ZM296.2,288.5c-.5.5-.6,1.9-.4,4.1.2,2.3,0,4.5-.6,6.8-.6,2.3-1.3,4.2-2.2,5.7-.9,1.6-2.5,3.7-5,6.5-1.2,1.4-2.4,2.7-3.7,4.1,1.4-.8,2.7-1.7,4.1-2.5,2.7-1.7,4.8-3.2,6.1-4.7,1.4-1.5,2.5-3,3.4-4.6.9-1.6,1.5-3.1,1.9-4.7.4-1.6.5-3.3.4-5.1,0-1.9-.3-3.2-.6-4.1-.3-.9-.8-1.5-1.6-1.8-.8-.3-1.4-.2-1.9.3ZM268.4,289.2c-.7.4-.8,1.3-.3,2.8.5,1.5,1.5,3.4,2.9,5.7,1.5,2.4,2.8,4.1,4,5.1.6.5,1.2,1.1,1.8,1.6-.7-1.2-1.5-2.4-2.2-3.5-1.5-2.4-2.4-4.2-2.9-5.4-.5-1.3-.8-2.6-1-4.1-.2-1.5-.4-2.3-.7-2.5-.3-.2-.8,0-1.5.3ZM241.4,295.7c.3.3.7.7,1,1,.7.7,1,1.6.9,2.8,0,1.2-.7,2.2-1.9,3.1-1.2.9-2.5,1.6-4,2.2-.7.3-1.5.6-2.2.9,0-.2,0-.5.1-.7,0-.5.8-1,2.2-1.6,1.4-.6,2.3-1.2,2.9-1.8.6-.6,1-1.5,1.2-2.6.2-1.2.2-2,0-2.5,0-.2-.2-.5-.3-.7ZM213,296.8c0,1.1,0,2.3.1,3.4,0,2.3,0,3.4-.3,3.5-.1,0-.3,0-.4.1-.3-.9-.6-1.9-.9-2.8-.6-1.9-.5-3,.3-3.5.4-.2.8-.5,1.2-.7ZM217.2,306.6c.5,0,1.8.6,4,1.8,2.1,1.2,3.4,2.1,3.8,2.8.4.7.6,1.4.6,2.1s-.2,1.3-.6,1.9c-.4.6-1.3.6-2.8.1-1.5-.5-2.7-1.2-3.8-2.2-1.1-1-1.8-2.1-2.2-3.2-.4-1.2-.4-2-.1-2.5.3-.5.7-.7,1.2-.7ZM217.1,322.1c.4,0,.8.2,1.2.3.8.2,2.1.9,4.1,2.2,2,1.3,3,3.6,3.1,7.1,0,3.4,0,5.7-.1,6.8,0,.5-.2,1.1-.3,1.6-.9-.4-1.9-.8-2.8-1.2-1.9-.8-3.2-1.5-4.1-2.2s-1.3-3.3-1.2-7.8c0-2.3,0-4.5.1-6.8ZM274.4,325.8c.2,0,.4,0,.6.1-1.3.4-2.6.8-4,1.2-2.6.8-6.3,1.8-11.1,2.9-4.8,1.2-8.5,1.8-11.3,1.8s-5.7-.4-8.8-1.2c-3.1-.8-4.7-1.5-4.7-2.2v-1h.3c.2,0,1.5.4,4,1.3,2.4.9,5,1.4,7.6,1.5,2.6,0,7.8-.6,15.4-2.2,7.6-1.6,11.6-2.3,12-2.2ZM280.7,326.3h.4v9.3c0,6.2-.4,10.1-1.2,11.9-.8,1.8-1.8,3.2-3.1,4.3-1.3,1.1-3,1.9-5.3,2.4-1.1.2-2.2.5-3.4.7.2-.9.5-1.8.7-2.6.5-1.8.7-3.3.7-4.7s-.3-2.5-1-3.5c-.7-1-1.3-1.6-1.9-1.9-.6-.3-1.8-.4-3.5-.3-1.8,0-4,.8-6.6,2.1-2.6,1.3-4.5,1.9-5.6,1.9s-2-.3-2.8-.9c-.8-.6-1.2-1.3-1.3-2.1,0-.8,0-1.4.1-1.8.2-.4,1.3-1.7,3.4-4,2-2.3,4-3.5,5.7-3.8s6.2-1.5,13.3-3.7c7.1-2.2,10.8-3.2,11.1-3.2ZM235.2,331.8c1.2.3,2.4.6,3.7.9,2.4.6,4.5.9,6.3,1,.9,0,1.8,0,2.6.1-.6.8-1.3,1.6-1.9,2.4-1.3,1.6-2.1,2.8-2.5,3.8-.4,1-.4,2.3,0,3.8.4,1.6,1.2,2.8,2.3,3.8,1.2,1,2.6,1.6,4.2,1.8,1.7.2,4-.4,7.2-1.8,3.1-1.4,5.3-2.1,6.4-2.1s1.9.4,2,1.2c.2.8,0,2.5-.7,5-.7,2.5-5.8,4.7-15.2,6.3-4.7.8-9.5,1.7-14.2,2.5,0-4.8,0-9.6-.1-14.4,0-4.8,0-9.6-.1-14.4ZM289.4,344.5c2.3.4,3.7.9,4.1,1.5.4.6.5,1.2.3,1.8-.2.6-.7,1-1.6,1.2-.9.2-2.2,0-4-.4-1.8-.5-2.8-1.1-3.1-1.8-.3-.7-.2-1.3.1-1.9.4-.6,1.8-.7,4.1-.3ZM286.9,350.2c1.7.3,2.9.8,3.8,1.5.9.7,1.4,1.5,1.5,2.5,0,1,0,1.7-.1,2.1-.2.4-1,1-2.3,1.8-1.4.8-9,2.5-23,5-14,2.5-21.8,3.8-23.6,3.7-1.8,0-2.9-.3-3.5-.6-.6-.3-1.3-.9-2-1.8-.8-.9-1.1-1.4-.9-1.6.2-.2,4.4-1,12.6-2.5,8.2-1.5,12.5-2.2,13-2.2h.7c0,.2-.2.5-.3.7-.2.5-.8.9-1.9,1.2-1.1.3-1.7.7-1.9,1.2,0,.2-.2.5-.3.7.8,0,1.7,0,2.5.1,1.7,0,3,0,4-.1,1-.2,2-.6,3.1-1.2,1.1-.6,1.6-1,1.5-1.3s-.5-.5-1.3-.6c-.4,0-.8,0-1.2-.1,0-.2,0-.5.1-.7,0-.5,1-.9,2.8-1.2,1.8-.3,3.5-.7,5.1-1.3,1.7-.6,3.6-1.7,5.9-3.2,2.2-1.6,4.2-2.2,5.9-1.9ZM216.2,354.2c.2.5.4,1.1.6,1.6.4,1.1,1.2,2.2,2.5,3.2,1.3,1.1,2.3,1.7,3.2,1.8.9,0,1.6-.2,2.2-.9.3-.3.6-.7.9-1,0,1.2,0,2.5.1,3.7,0,2.5.3,4.3.6,5.4.1.6.3,1.2.4,1.8-.7-.3-1.5-.7-2.2-1-1.5-.7-2.7-1.5-3.8-2.5-1.1-1-2-2.2-2.8-3.7-.8-1.5-1.3-3.2-1.5-5.3,0-1-.2-2.1-.3-3.1Z"/>
        </g>
        <path id="_волны2-2" data-name="волны2" class="cls-6" d="M121.5,246.3c-.1,22-.2,44-.3,66h4.3v-65.7c0-43.8-.6-65.8-1.9-66-.6-.1-1.2-.2-1.9-.3-.1,22-.2,44-.3,66ZM90.8,246v56.4h4.3v-56.1c0-37.4-.7-56.2-2.2-56.4-.7-.1-1.4-.2-2.2-.3v56.4ZM115,246c0,35.1.7,52.8,2.2,53,.7.1,1.4.2,2.2.3v-105.9h-4.3v52.7ZM157.7,246.3v53h4.3v-105.9h-4.3v53ZM84.6,246.7v35.9h4.3v-71.9h-4.3v35.9ZM151.5,246.3c0,22.9.7,34.5,2.2,34.7.7.1,1.4.2,2.2.3v-69.4h-4.3v34.4ZM109.4,246.7v33.4h3.7v-66.9h-3.7v33.4ZM97,246.7v28.5h3.7c.1-9.4.2-18.8.3-28.2.2-18.8-.4-28.3-1.9-28.5-.7-.1-1.4-.2-2.2-.3v28.5ZM163.9,246.7v28.5h4.3v-57h-4.3v28.5ZM127.4,246.7v21.1h4.3v-42.1h-4.3v21.1ZM146,246.7v21.1h3.7v-42.1h-3.7v21.1ZM78.4,246.3c0,8.5.7,12.8,2.2,13,.7.1,1.4.2,2.2.3v-26h-4.3v12.7ZM170.7,246.3c0,8.5.7,12.8,2.2,13l2.2.3v-26h-4.3v12.7ZM133.6,246.3v10.8h4.3v-21.7h-4.3v10.8ZM176.9,246.7c0,5.4.7,8.2,2.2,8.4.7.1,1.4.2,2.2.3v-16.7h-4.3v8.1ZM102.9,246.3c-.2,4.3.4,6.6,1.9,6.8.7.1,1.4.2,2.2.3.1-2.2.2-4.3.3-6.5.2-4.3-.4-6.6-1.9-6.8-.7-.1-1.4-.2-2.2-.3-.1,2.2-.2,4.3-.3,6.5ZM72.2,246.7v5h4.3v-9.9h-4.3v5ZM139.8,247v2.8h1.9c1.2,0,2-.9,2.2-2.8.1-.9.2-1.9.3-2.8h-4.3v2.8Z"/>
        <g class="cls-1">
          <g id="_круг1" data-name="круг1">
            <path id="Fill-2" data-name="Fill" class="cls-7" d="M256,33.7c-122.8,0-222.3,99.5-222.3,222.3,0,122.8,99.5,222.3,222.3,222.3s222.3-99.5,222.3-222.3S378.8,33.7,256,33.7Z"/>
          </g>
        </g>
        <g class="cls-5">
          <g id="_круг2" data-name="круг2">
            <path id="Fill_2-2" data-name="Fill_2" class="cls-8" d="M256,52.6c-112.3,0-203.4,91.1-203.4,203.4,0,112.3,91.1,203.4,203.4,203.4s203.4-91,203.4-203.4S368.3,52.6,256,52.6Z"/>
          </g>
        </g>
        <g id="_Слой-1-3" data-name="Слой-1">
          <g class="cls-2">
            <path class="cls-9" d="M145.9,296.6l-29.9-147.4h23.8l19.4,102.6,18.3-102.6h24.4l-30,147.4h-26Z"/>
            <path class="cls-9" d="M255.8,298.4c-15.2,0-26-4.1-32.6-12.4-6.6-8.2-9.9-20.3-9.9-36.2v-54.4c0-7.8.7-14.6,2.2-20.4,1.5-5.7,3.9-10.7,7.2-14.9,3.3-4.2,7.7-7.4,13.2-9.5,5.5-2.1,12.1-3.2,19.9-3.2,15.1,0,26,4.1,32.6,12.2,6.6,8.1,9.9,20,9.9,35.7v54.4c0,7.7-.8,14.5-2.3,20.3-1.5,5.8-3.9,10.9-7.2,15.2-3.3,4.3-7.7,7.5-13.2,9.7-5.5,2.2-12.1,3.3-19.8,3.3ZM249.1,277.3c1.9.8,4.1,1.2,6.8,1.2s4.8-.4,6.7-1.2c1.8-.8,3.3-1.8,4.4-3,1.1-1.2,2-2.9,2.6-4.9.6-2,1-4,1.2-6,.2-2,.3-4.4.3-7.2v-66.9c0-3.6-.2-6.5-.5-8.9-.4-2.4-1.1-4.6-2.1-6.7-1-2.1-2.6-3.7-4.7-4.7-2.1-1-4.7-1.6-7.9-1.6s-5.9.5-8,1.6c-2.1,1-3.7,2.6-4.7,4.7-1,2.1-1.7,4.3-2,6.7-.4,2.4-.5,5.3-.5,8.9v66.9c0,2.8.1,5.2.3,7.2s.6,4,1.2,6c.6,2,1.5,3.6,2.5,4.9,1.1,1.2,2.5,2.3,4.4,3Z"/>
            <path class="cls-9" d="M308.8,296.6l29.6-78.2-28.8-69.2h25.2l19.1,45.7,16.4-45.7h23.6l-28.4,73.9,30.6,73.5h-25.1l-20.6-49.4-18.1,49.4h-23.4Z"/>
          </g>
          <g class="cls-3">
            <path class="cls-9" d="M170,344.2h1.7c1.6,0,2.8-.3,3.4-1,.6-.7.9-1.9.9-3.5s-.1-1.6-.3-2.1c-.2-.5-.5-.9-1-1.2-.5-.3-1-.4-1.6-.5-.6,0-1.4-.1-2.3-.1h-.8v8.5ZM170,358.3h2c1.7,0,2.8-.4,3.4-1.2.6-.8.9-2,.9-3.8s-.4-3.2-1.1-4c-.7-.8-1.9-1.2-3.6-1.2h-1.7v10.2ZM164.5,362.2v-30.4h7.5c1.4,0,2.6.1,3.7.4,1.1.3,2,.7,2.8,1.2.8.6,1.4,1.4,1.8,2.4.4,1,.6,2.3.6,3.7,0,3.8-1.5,5.9-4.5,6.3,3.6.7,5.3,3.2,5.4,7.5,0,2.9-.7,5.1-2.2,6.6s-3.6,2.2-6.4,2.2h-8.7Z"/>
            <path class="cls-9" d="M193.6,362.6c-3.1,0-5.4-.9-6.7-2.6-1.4-1.7-2-4.2-2-7.5v-11.2c0-1.6.2-3,.5-4.2.3-1.2.8-2.2,1.5-3.1.7-.9,1.6-1.5,2.7-2,1.1-.4,2.5-.7,4.1-.7,3.1,0,5.4.8,6.7,2.5,1.4,1.7,2,4.1,2,7.4v11.2c0,1.6-.2,3-.5,4.2-.3,1.2-.8,2.3-1.5,3.1-.7.9-1.6,1.6-2.7,2-1.1.5-2.5.7-4.1.7ZM192.2,358.2c.4.2.9.2,1.4.2s1,0,1.4-.2c.4-.2.7-.4.9-.6.2-.3.4-.6.5-1,.1-.4.2-.8.3-1.2s0-.9,0-1.5v-13.8c0-.7,0-1.3-.1-1.8,0-.5-.2-1-.4-1.4-.2-.4-.5-.8-1-1-.4-.2-1-.3-1.6-.3s-1.2.1-1.6.3c-.4.2-.8.5-1,1-.2.4-.3.9-.4,1.4,0,.5-.1,1.1-.1,1.8v13.8c0,.6,0,1.1,0,1.5s.1.8.3,1.2c.1.4.3.8.5,1,.2.3.5.5.9.6Z"/>
            <path class="cls-9" d="M206.5,362.2v-30.4h5.5v12.8h1.1l4.9-12.8h5.5l-5.7,14.4,6.2,16.1h-5.6l-5.3-14.2h-1.1v14.2h-5.5Z"/>
            <path class="cls-9" d="M232.2,351.5h4.1l-2-12.5-2,12.5ZM225.1,362.2l6.2-30.4h5.8l6.2,30.4h-5.2l-1.2-7.1h-5.3l-1.2,7.1h-5.2Z"/>
            <path class="cls-9" d="M244.1,362.2v-4c.6,0,1.1,0,1.5,0,.4,0,.7-.2,1.1-.4.4-.3.7-.6.9-1,.2-.4.4-1.1.6-1.9.2-.8.4-1.8.5-3,.1-1.2.2-2.6.4-4.4l1-15.6h14.9v30.4h-5.5v-26.3h-4.4l-.7,12c0,1.2-.1,2.3-.2,3.2,0,.9-.2,1.8-.3,2.8-.1,1-.3,1.8-.5,2.4-.2.6-.4,1.3-.7,2-.3.7-.6,1.2-.9,1.6-.3.4-.8.8-1.2,1.2-.5.4-1,.6-1.6.8-.6.2-1.3.3-2.1.4-.8,0-1.6,0-2.6,0Z"/>
            <path class="cls-9" d="M275,358.4h1c.8,0,1.5,0,2.1-.2.5-.1,1-.4,1.4-.8.4-.4.7-.9.8-1.6.2-.7.3-1.5.2-2.6,0-1.7-.4-2.9-1-3.7-.7-.8-1.9-1.1-3.6-1.1h-.9v10ZM269.4,362.2v-30.4h5.5v12.7h1.1c1.6,0,3,.1,4.2.4,1.2.3,2.2.8,3,1.4.8.7,1.4,1.6,1.8,2.7.4,1.1.6,2.5.6,4.2s-.2,3.1-.6,4.3c-.4,1.2-1.1,2.1-2,2.8-.9.7-1.9,1.1-3,1.4-1.2.3-2.5.4-4.1.4h-6.5Z"/>
            <path class="cls-9" d="M289.2,362.2v-30.4h5.5v12.7h6.2v-12.7h5.5v30.4h-5.5v-13.8h-6.2v13.8h-5.5Z"/>
            <path class="cls-9" d="M316.5,351.5h4.1l-2-12.5-2,12.5ZM309.5,362.2l6.2-30.4h5.8l6.2,30.4h-5.2l-1.2-7.1h-5.3l-1.2,7.1h-5.2Z"/>
            <path class="cls-9" d="M341,346h1v-10.3h-1.1c-1.7,0-3,.4-3.8,1.2-.8.8-1.2,2-1.2,3.7s.4,3.2,1.2,4.1c.8.9,2.1,1.4,3.9,1.4ZM328.7,362.2l6.1-13.6c-1.3-.7-2.3-1.7-3.1-3.1s-1.1-3.1-1.1-5c0-3,.8-5.2,2.4-6.6,1.6-1.4,4.2-2.1,7.6-2.1h6.8v30.4h-5.5v-12.3h-2.3l-4.9,12.3h-6.1Z"/>
            <path class="cls-9" d="M206,413.6c-1.3,0-2.5-.2-3.5-.5-1-.3-1.8-.8-2.5-1.4-.7-.6-1.2-1.3-1.6-2.2-.4-.9-.7-1.8-.9-2.8-.2-1-.2-2.1-.2-3.4v-10.6c0-1.3,0-2.5.3-3.5.2-1,.5-2,.9-2.8.4-.9.9-1.6,1.6-2.2.7-.6,1.5-1,2.5-1.3,1-.3,2.2-.5,3.5-.5s2.8.2,3.9.6c1.1.4,1.9,1,2.6,1.8.6.8,1.1,1.7,1.4,2.7.3,1,.4,2.3.4,3.7v2.6h-5.3v-2.6c0-1.5,0-2.5-.2-3.1-.3-1-1.1-1.6-2.3-1.7h-.3c-.5,0-.9,0-1.2.2-.3.1-.6.3-.9.5-.2.2-.4.5-.5.8-.1.3-.2.6-.3,1.1,0,.4-.1.8-.1,1.2,0,.4,0,.8,0,1.4v12.9c0,1.8.2,3.1.7,3.8.4.8,1.2,1.1,2.4,1.1s.7,0,1-.1c.3,0,.6-.2.8-.3.2-.1.4-.3.5-.6.1-.3.2-.5.3-.7,0-.2.1-.5.2-.9,0-.4,0-.7,0-1,0-.3,0-.7,0-1.2v-2.7h5.3v2.5c0,1.1,0,2.2-.2,3.1-.2.9-.4,1.8-.8,2.6-.4.8-.9,1.5-1.5,2-.6.5-1.4.9-2.4,1.2-1,.3-2.1.5-3.3.5Z"/>
            <path class="cls-9" d="M221.1,413.3v-26.3h-5.1v-4.1h15.6v4.1h-4.9v26.3h-5.5Z"/>
            <path class="cls-9" d="M233.6,418.6v-3.9c2.4.2,3.9,0,4.6-.8.7-.7.9-2,.4-3.8l-6.3-27.2h5.2l2.5,12.6,1.3,9,1.1-8.9,2.2-12.7h5.3l-5.8,27.7c-.4,1.9-.8,3.3-1,4.1-.3.8-.8,1.6-1.5,2.4-.7.8-1.7,1.2-2.9,1.4-1.2.2-2.9.2-5,.1Z"/>
            <path class="cls-9" d="M255.5,409.3h8.7v-22.5h-3.8l-.3,6.5c0,1.7-.2,3.2-.3,4.6-.1,1.4-.3,2.6-.4,3.5-.2,1-.4,1.8-.6,2.7-.3.8-.5,1.5-.7,1.9-.2.5-.5.9-.8,1.4-.4.5-.6.8-.8,1-.2.2-.5.5-.9.9ZM249.2,419.3v-10h1.2c.7-.4,1.2-.9,1.7-1.6.5-.7,1-1.6,1.4-2.8.5-1.2.9-2.9,1.2-5,.3-2.1.5-4.6.7-7.5l.6-9.6h13.6v26.5h3.2v10h-3.9l-.4-6h-14.9l-.4,6h-4.1Z"/>
            <path class="cls-9" d="M275.9,413.3v-30.4h4.6v19l8.3-19h3.8v30.4h-4.7v-19.4l-8.3,19.4h-3.7Z"/>
            <path class="cls-9" d="M307.5,397h1v-10.3h-1.1c-1.7,0-3,.4-3.8,1.2-.8.8-1.2,2-1.2,3.7s.4,3.2,1.2,4.1c.8.9,2.1,1.4,3.9,1.4ZM295.3,413.3l6.1-13.6c-1.3-.7-2.3-1.7-3.1-3.1-.8-1.4-1.1-3.1-1.1-5,0-3,.8-5.2,2.4-6.6,1.6-1.4,4.2-2.1,7.6-2.1h6.8v30.4h-5.5v-12.3h-2.3l-4.9,12.3h-6.1Z"/>
          </g>
        </g>
      </g>
    </g>
  </g>
</svg>