<svg width="19" height="19" viewBox="0 0 19 19" fill="none" xmlns="http://www.w3.org/2000/svg">
<path d="M16.8496 6.55147L12.1386 5.8668L10.0326 1.59737C9.97509 1.48048 9.88046 1.38585 9.76356 1.32833C9.4704 1.1836 9.11415 1.30421 8.96757 1.59737L6.86161 5.8668L2.15058 6.55147C2.02069 6.57003 1.90194 6.63126 1.81103 6.72403C1.70111 6.837 1.64054 6.98899 1.64263 7.1466C1.64472 7.3042 1.70929 7.45454 1.82216 7.56456L5.23065 10.8877L4.42538 15.5802C4.4065 15.6893 4.41858 15.8016 4.46025 15.9042C4.50192 16.0069 4.57152 16.0958 4.66115 16.1609C4.75078 16.226 4.85686 16.2647 4.96736 16.2726C5.07786 16.2804 5.18836 16.2572 5.28632 16.2055L9.50009 13.99L13.7139 16.2055C13.8289 16.2667 13.9625 16.2871 14.0905 16.2649C14.4134 16.2092 14.6305 15.903 14.5748 15.5802L13.7695 10.8877L17.178 7.56456C17.2708 7.47364 17.332 7.35489 17.3506 7.22501C17.4007 6.9003 17.1743 6.59971 16.8496 6.55147Z" fill="url(#paint0_linear_320_302)"/>
<defs>
<linearGradient id="paint0_linear_320_302" x1="9.50005" y1="1.26709" x2="9.50005" y2="16.2741" gradientUnits="userSpaceOnUse">
<stop stop-color="#E85E8F"/>
<stop offset="1" stop-color="#EF286F"/>
</linearGradient>
</defs>
</svg>
