<?xml version="1.0" encoding="UTF-8" standalone="no"?>
<!DOCTYPE svg PUBLIC "-//W3C//DTD SVG 1.1//EN" "http://www.w3.org/Graphics/SVG/1.1/DTD/svg11.dtd">
<!-- Created with Vectornator (http://vectornator.io/) -->
<svg height="512.0pt" stroke-miterlimit="10" style="fill-rule:nonzero;clip-rule:evenodd;stroke-linecap:round;stroke-linejoin:round;" version="1.1" viewBox="0 0 512 512" width="512.0pt" xml:space="preserve" xmlns="http://www.w3.org/2000/svg" xmlns:xlink="http://www.w3.org/1999/xlink">
<defs>
<linearGradient gradientTransform="matrix(-103.1 9.01329e-06 9.01329e-06 103.1 446.7 249.4)" gradientUnits="userSpaceOnUse" id="LinearGradient" x1="0" x2="1" y1="0" y2="0">
<stop offset="0" stop-color="#e85e8f"/>
<stop offset="1" stop-color="#ef286f"/>
</linearGradient>
<linearGradient gradientTransform="matrix(109.1 0 0 109.1 72.2 246.3)" gradientUnits="userSpaceOnUse" id="LinearGradient_2" x1="0" x2="1" y1="0" y2="0">
<stop offset="0" stop-color="#e85e8f"/>
<stop offset="1" stop-color="#ef286f"/>
</linearGradient>
</defs>
<g id="Без-названия">
<g opacity="1">
<path d="M384.5 249.5C384.6 271.5 384.7 293.5 384.8 315.5L382.4 315.5C381.6 315.5 380.8 315.5 380 315.5C380 293.6 380 271.7 380 249.8C380 206 380.7 184 382.1 183.8C382.8 183.7 383.5 183.6 384.2 183.5C384.3 205.5 384.4 227.5 384.5 249.5ZM418.6 249.2C418.6 268 418.6 286.8 418.6 305.6L416.2 305.6C415.4 305.6 414.6 305.6 413.8 305.6C413.8 286.9 413.8 268.2 413.8 249.5C413.8 212.1 414.6 193.3 416.2 193.1C417 193 417.8 192.9 418.6 192.8C418.6 211.6 418.6 230.4 418.6 249.2ZM391.7 249.2C391.7 284.3 390.9 302 389.3 302.2C388.5 302.3 387.7 302.4 386.9 302.5C386.9 284.8 386.9 267.2 386.9 249.5C386.9 231.8 386.9 214.2 386.9 196.5L389.3 196.5C390.1 196.5 390.9 196.5 391.7 196.5C391.7 214.1 391.7 231.6 391.7 249.2ZM344.3 249.5C344.3 267.2 344.3 284.8 344.3 302.5L341.9 302.5C341.1 302.5 340.3 302.5 339.5 302.5C339.5 284.8 339.5 267.2 339.5 249.5C339.5 231.8 339.5 214.2 339.5 196.5L341.9 196.5C342.7 196.5 343.5 196.5 344.3 196.5C344.3 214.2 344.3 231.8 344.3 249.5ZM425.4 249.8C425.4 261.8 425.4 273.8 425.4 285.7L423 285.7C422.2 285.7 421.4 285.7 420.6 285.7C420.6 273.7 420.6 261.7 420.6 249.8C420.6 237.8 420.6 225.8 420.6 213.9L423 213.9C423.8 213.9 424.6 213.9 425.4 213.9C425.4 225.9 425.4 237.9 425.4 249.8ZM351.2 249.5C351.2 272.4 350.4 284 348.8 284.2C348 284.3 347.2 284.4 346.4 284.5C346.4 272.9 346.4 261.4 346.4 249.8C346.4 238.2 346.4 226.7 346.4 215.1L348.8 215.1C349.6 215.1 350.4 215.1 351.2 215.1C351.2 226.6 351.2 238 351.2 249.5ZM397.9 249.8C397.9 260.9 397.9 272.1 397.9 283.2L395.8 283.2C395.1 283.2 394.4 283.2 393.7 283.2C393.7 272.1 393.7 260.9 393.7 249.8C393.7 238.7 393.7 227.5 393.7 216.4L395.8 216.4C396.5 216.4 397.2 216.4 397.9 216.4C397.9 227.5 397.9 238.7 397.9 249.8ZM411.7 249.8C411.7 259.3 411.7 268.8 411.7 278.3L409.6 278.3C408.9 278.3 408.2 278.3 407.5 278.3C407.4 268.9 407.3 259.5 407.2 250.1C407 231.3 407.7 221.8 409.3 221.6C410.1 221.5 410.9 221.4 411.7 221.3C411.7 230.8 411.7 240.3 411.7 249.8ZM337.4 249.8L337.4 278.3L335 278.3C334.2 278.3 333.4 278.3 332.6 278.3L332.6 249.8C332.6 240.3 332.6 230.8 332.6 221.3L335 221.3C335.8 221.3 336.6 221.3 337.4 221.3C337.4 230.8 337.4 240.3 337.4 249.8ZM378 249.8C378 256.8 378 263.8 378 270.9L375.6 270.9C374.8 270.9 374 270.9 373.2 270.9C373.2 263.9 373.2 256.9 373.2 249.8L373.2 228.7L375.6 228.7C376.4 228.7 377.2 228.7 378 228.7C378 235.7 378 242.7 378 249.8ZM357.4 249.8C357.4 256.8 357.4 263.8 357.4 270.9L355.3 270.9C354.6 270.9 353.9 270.9 353.2 270.9C353.2 263.9 353.2 256.9 353.2 249.8L353.2 228.7L355.3 228.7C356 228.7 356.7 228.7 357.4 228.7C357.4 235.7 357.4 242.7 357.4 249.8ZM432.3 249.5C432.3 258 431.5 262.3 429.9 262.5C429.1 262.6 428.3 262.7 427.5 262.8C427.5 258.5 427.5 254.1 427.5 249.8L427.5 236.8L429.9 236.8C430.7 236.8 431.5 236.8 432.3 236.8C432.3 241 432.3 245.3 432.3 249.5ZM371.1 249.5L371.1 260.3L368.7 260.3C367.9 260.3 367.1 260.3 366.3 260.3C366.3 256.7 366.3 253.1 366.3 249.5C366.3 245.9 366.3 242.3 366.3 238.7L368.7 238.7C369.5 238.7 370.3 238.7 371.1 238.7C371.1 242.3 371.1 245.9 371.1 249.5ZM405.1 249.5C405.3 253.8 404.6 256.1 403 256.3C402.2 256.4 401.4 256.5 400.6 256.6C400.5 254.4 400.4 252.3 400.3 250.1C400.1 245.8 400.8 243.5 402.4 243.3C403.2 243.2 404 243.1 404.8 243C404.9 245.2 405 247.3 405.1 249.5ZM439.2 249.8C439.2 251.5 439.2 253.1 439.2 254.8L436.8 254.8C436 254.8 435.2 254.8 434.4 254.8C434.4 253.1 434.4 251.5 434.4 249.8C434.4 248.1 434.4 246.5 434.4 244.8L436.8 244.8C437.6 244.8 438.4 244.8 439.2 244.8C439.2 246.5 439.2 248.1 439.2 249.8ZM364.2 250.1L364.2 252.9L362.1 252.9C360.7 252.9 359.9 252 359.7 250.1C359.6 249.2 359.5 248.2 359.4 247.3C360.2 247.3 361 247.3 361.8 247.3L364.2 247.3C364.2 248.2 364.2 249.2 364.2 250.1Z" fill="url(#LinearGradient)" fill-rule="nonzero" opacity="1" stroke="none"/>
<path d="M238.6 148.3C233.4 148.9 229.6 149.5 227 150.1C224.5 150.7 221.6 151.5 218.5 152.6C215.4 153.7 211.6 155.3 207.1 157.6C202.6 159.9 198.3 162.4 194.1 165.1C189.9 167.8 186.6 170.5 184.3 173C182 175.5 180 178.2 178.4 181.1C176.8 183.9 175.6 187 174.7 190.4C173.8 193.7 173.4 197.2 173.4 200.8C173.4 204.4 173.7 207.2 174.3 209.2C174.9 211.2 175.9 212.5 177.2 213.2C178.6 213.9 179.3 214.4 179.5 214.8C179.7 215.2 179.5 215.9 179.1 217C178.6 218.1 178.4 219.2 178.4 220.4C178.4 221.6 178.7 223 179.4 224.7C180.1 226.4 180.7 227.5 181.3 228.1C181.9 228.7 182.6 229.1 183.5 229.3C184.4 229.5 185 229.7 185.3 230C185.6 230.3 185.7 230.8 185.7 231.5C185.7 232.2 185.5 232.9 185 233.7C184.5 234.5 184.3 235.3 184.3 236.1C184.3 236.9 184.6 238.1 185.2 239.6C185.8 241.2 186.4 242.3 187 243.1C187.6 243.9 188.6 244.6 189.9 245.2C191.3 245.8 191.9 246.4 191.9 247.1C191.9 247.8 191.7 248.5 191.2 249.3C190.7 250.1 190.5 250.9 190.5 251.7C190.5 252.5 190.7 253.6 191.2 254.9C191.7 256.3 192.3 257.4 193 258.4C193.7 259.4 194.5 260 195.5 260.3C196.5 260.6 197.2 261 197.5 261.5C197.9 262 198 262.5 197.9 263.1C197.9 263.7 197.6 264.2 197.2 264.7C196.8 265.2 196.6 266 196.6 267.2C196.6 268.4 196.9 269.7 197.5 271.2C198.1 272.7 198.5 273.7 198.8 274.1C199.1 274.6 199.9 275.1 201.3 275.7C202.7 276.3 203.5 276.8 203.8 277.2C204.1 277.6 203.9 278.5 203.4 279.8C202.8 281.2 202.5 282.2 202.5 282.7C202.5 283.2 202.8 284.4 203.4 285.9C204 287.5 204.6 288.7 205.3 289.6C206 290.5 207 291.2 208.2 291.8C209.5 292.4 210.1 293 210.1 293.6C210.1 294.2 209.9 294.9 209.4 295.7C208.9 296.5 208.7 297.3 208.7 298.2C208.7 299.1 209.1 300.5 209.9 302.3C210.7 304.2 211.5 305.4 212.2 306C213 306.6 213.4 307.1 213.5 307.6C213.5 308.1 213.6 316.8 213.6 333.6C213.6 350.4 213.8 359.6 214.2 361.1C214.6 362.6 215.2 363.9 216 365.1C216.8 366.3 217.9 367.5 219.2 368.6C220.6 369.8 222.3 371 224.5 372.3C226.6 373.6 228.7 374.7 230.8 375.5C232.8 376.4 234.9 376.9 236.9 377.1C238.9 377.3 242.4 377.1 247.3 376.5C249.7 376.2 252.2 375.9 254.6 375.6L254.6 441.5L256.6 441.5L256.6 375L258.1 375L258.1 441.5L263.7 441.5L263.7 411.4C263.7 391.3 264 380.7 264.6 379.6C265.2 378.5 265.8 377.9 266.5 377.8C267.2 377.8 267.7 377.8 268.1 378.1C268.5 378.4 268.9 379.3 269.3 380.7C269.7 382.2 269.9 392.7 270 412.2C270 422 270 431.7 270.1 441.5L270.7 441.5C271.1 441.5 271.3 441.4 271.4 441.1C271.4 440.8 271.7 431.5 272.1 413.2C272.3 404 272.5 394.9 272.7 385.7C272.9 385.7 273.1 385.9 273.3 386C273.7 386.2 273.9 395.5 273.9 413.9L273.9 441.5L275.7 441.5L275.7 406.5C275.7 383.2 279.2 370.6 286.2 368.8C293.2 367 297.2 365.9 298.1 365.4C299 364.9 299.9 364.2 300.7 363.3C301.6 362.4 302.3 361.5 302.7 360.5C303.2 359.5 303.6 358.3 303.9 357C304.2 355.6 304.3 348.9 304.3 336.9C304.3 324.9 307.1 317.6 312.8 315.1C318.5 312.6 322.2 310.8 323.9 309.7C325.7 308.5 327.2 307.3 328.4 306.2C329.7 305 331.1 303.3 332.6 301.1C334.2 298.8 335.3 296.7 336.1 294.8C336.9 292.9 337.5 290.9 337.9 288.9C338.3 286.9 338.5 284.7 338.5 282.3C338.5 279.9 338.3 277.8 337.9 276.3C337.5 274.7 336.9 273.7 336.1 273.1C335.3 272.5 334.4 272.2 333.5 272.2L332 272.2L332 271.3C332 270.7 332.3 269.6 332.9 267.9C333.5 266.2 333.5 264.5 333 262.6C332.5 260.7 331.8 259.4 331 258.6C330.1 257.8 329.1 257.4 327.9 257.4L326.1 257.4C326.4 256.4 326.8 255.4 327.1 254.5C327.8 252.5 328 250.8 327.7 249.2C327.4 247.6 326.9 246.3 326.1 245.1C325.3 243.9 324.2 243.2 322.7 243C322 243 321.2 242.8 320.5 242.7C320.8 242 321.1 241.2 321.4 240.5C322 239 322.3 237.6 322.3 236.2C322.3 234.8 322 233.5 321.4 232.1C320.8 230.7 320.3 229.8 319.9 229.5C319.5 229.1 318.6 228.8 317.1 228.5C316.4 228.4 315.6 228.2 314.9 228.1C315.2 227.2 315.6 226.3 315.9 225.5C316.6 223.7 316.9 222.4 316.8 221.4C316.8 220.4 316.3 219.1 315.5 217.4C314.7 215.7 314 214.7 313.3 214.3C312.6 213.9 311.7 213.7 310.7 213.6C309.6 213.6 309.1 213.3 309.1 212.9C309.1 212.5 309.4 211.8 310 210.8C310.6 209.8 310.9 208.6 310.9 207.3C310.9 206 310.7 204.7 310.3 203.6C309.9 202.5 309.4 201.6 308.7 200.8C308 200 306.9 199.5 305.5 199.2C304.8 199.1 304 198.9 303.3 198.8C303.6 198.2 303.9 197.6 304.2 197C304.8 195.8 305.2 194.7 305.4 193.6C305.6 192.5 305.4 191.1 304.8 189.5C304.2 187.8 303.7 186.8 303.3 186.3C302.9 185.8 301.9 185.4 300.2 185C299.4 184.8 298.5 184.6 297.7 184.4C298 183.6 298.4 182.8 298.7 182C299.4 180.4 299.7 179.2 299.7 178.2C299.7 177.2 299.1 175.2 297.8 172C296.5 168.9 295.5 166.6 294.6 165.1C293.7 163.6 292.1 161.8 289.8 159.5C287.5 157.2 284.6 155.3 281.3 153.6C278 151.9 273.8 150.7 268.9 149.8C263.9 148.9 258.9 148.3 253.8 148C248.7 147.7 243.6 147.9 238.4 148.4L238.6 148.3ZM249.9 149.5C250.7 149.7 251.5 150 252.2 150.2C253.8 150.7 255.3 151.5 256.7 152.6C258.2 153.7 259.6 155.1 261.1 156.9C262.6 158.7 263.9 160.6 265.1 162.8C266.3 165 267.1 166.2 267.6 166.6C268.1 167 268.7 167 269.5 166.6C270.3 166.2 270.7 165.7 270.7 165C270.7 164.3 270.5 163.5 270.1 162.5C269.7 161.5 268.8 160 267.5 157.9C266.1 155.8 264.9 154.3 263.7 153.2C262.5 152.1 261.6 151.4 260.9 151.1C260.6 151 260.2 150.8 259.9 150.7C259.9 150.7 259.9 150.5 260 150.4C260 150.2 260.8 150.4 262 150.7C263.3 151.1 264.8 152 266.7 153.5C268.6 155 270.7 157.7 273.1 161.6C275.5 165.5 277 167.5 277.5 167.6C278 167.6 278.5 167.6 279 167.2C279.5 166.8 279.7 166.1 279.6 165.1C279.5 164.1 278.7 162.4 277.3 159.8C275.8 157.3 274.5 155.4 273.3 154.4C272.1 153.3 271.2 152.6 270.5 152.3C270.2 152.2 269.8 152 269.5 151.9C269.7 151.9 270 151.9 270.2 151.8C270.7 151.8 271.8 152.1 273.4 153C275.1 153.9 276.5 154.9 277.6 155.9C278.8 157 280.4 159.3 282.6 163C284.7 166.6 286.2 168.4 286.8 168.4C287.4 168.4 288 168.1 288.4 167.4C288.8 166.7 288.6 165.4 287.8 163.6C287 161.7 286 160.2 284.9 158.9C284.3 158.3 283.7 157.6 283.1 157C283.1 157 283.3 157 283.4 156.9C283.6 156.9 285 157.9 287.5 160.1C290 162.4 292 164.7 293.5 167.2C295 169.7 296 172 296.7 174.1C297.4 176.3 297.6 177.5 297.3 177.8C297 178.1 295 178.2 291.2 178.2C287.4 178.2 285.2 178.5 284.6 179.2C284 179.9 283.7 180.7 283.7 181.7C283.7 182.7 283.9 183.5 284.3 184.1C284.7 184.7 285.2 185.1 285.9 185.4C286.6 185.7 289.2 185.9 293.8 186.1C298.4 186.3 300.9 186.6 301.4 187C301.9 187.4 302.3 188.1 302.7 189.1C303.1 190.1 303.2 191 303 191.7C302.8 192.5 300.9 192.9 297.3 192.9C293.7 192.9 291.5 193.2 290.9 193.8C290.2 194.4 289.8 195.3 289.7 196.4C289.7 197.6 289.7 198.5 290.3 199.2C290.8 199.9 291.3 200.3 291.8 200.5C292.3 200.7 294.4 200.8 298.2 200.8C302 200.8 304.3 200.8 305.2 200.9C306.1 200.9 306.8 201.2 307.2 201.6C307.7 202 308.1 202.7 308.5 203.7C308.9 204.7 309 205.5 308.9 206.2C308.9 206.9 306.9 207.3 303.2 207.5C299.5 207.7 297.3 208.1 296.6 208.7C295.9 209.3 295.5 210.2 295.4 211.3C295.4 212.5 295.4 213.4 296 214.1C296.5 214.8 297 215.2 297.5 215.4C298 215.6 300.5 215.6 305 215.5C309.5 215.5 312 215.5 312.6 215.9C313.2 216.3 313.7 217.1 314.2 218.4C314.7 219.7 314.9 220.5 314.8 220.9C314.8 221.3 313.7 221.7 311.7 222.2C309.7 222.7 308.5 223.3 308 224.1C307.5 224.9 307.3 225.7 307.4 226.6C307.4 227.5 307.7 228.2 308.1 228.7C308.5 229.2 309.1 229.6 309.9 229.9C310.7 230.2 312.3 230.3 314.7 230.3C317.1 230.3 318.7 230.8 319.2 231.9C319.8 233 320.1 233.9 320.2 234.7C320.2 235.5 320.2 236 319.9 236.3C319.6 236.6 317.7 236.9 314 237.3C310.4 237.7 308.3 238.2 307.7 238.9C307.1 239.6 306.8 240.4 306.8 241.4C306.8 242.4 307.2 243.3 308 244C308.8 244.8 311.5 245 316 244.7C320.6 244.4 323.1 244.4 323.6 244.7C324.1 245 324.6 245.8 325.2 247.2C325.8 248.6 326 249.5 325.9 250C325.9 250.5 323.8 251.1 319.9 251.8C316 252.5 313.8 253.2 313.3 253.9C312.8 254.6 312.6 255.4 312.6 256.4C312.6 257.4 313 258.3 313.9 259C314.8 259.8 317 260 320.6 259.6C324.2 259.2 326.6 259.1 327.9 259.3C329.2 259.5 330.1 260.2 330.7 261.5C331.3 262.8 331.6 263.7 331.6 264.3C331.6 264.9 331.4 265.3 331 265.6C330.6 265.9 328.7 266.3 325.1 266.9C321.6 267.5 319.6 268.1 319.1 268.7C318.6 269.3 318.4 270.1 318.4 271.2C318.4 272.3 318.8 273.2 319.7 274C320.6 274.8 323.2 274.9 327.6 274.4C332 273.9 334.4 273.8 334.8 274.1C335.2 274.4 335.5 275 335.8 276C336.1 277 336.2 279 336.2 282.2C336.2 285.4 335.6 288.6 334.4 292.1C333.2 295.5 332.2 298 331.2 299.5C330.2 301 329 302.5 327.4 304.1C325.8 305.7 323.9 307.1 321.7 308.5C319.5 309.9 316.2 311.2 311.9 312.6C307.6 314 302.8 315.2 297.6 316.3C292.3 317.4 288.2 318.1 285.3 318.4C282.4 318.7 279 318.8 275.1 318.7C271.2 318.7 268.1 318.2 265.9 317.5C263.7 316.8 261.3 315.6 258.7 314C256.2 312.3 254.1 310.6 252.6 308.9C251 307.1 249.5 304.8 247.9 302C246.3 299.2 243.8 293 240.1 283.6C236.5 274.2 234.7 268.3 234.7 265.8L234.7 262.1C234.8 262.2 235 262.4 235.1 262.5C235.4 262.8 237.7 268.5 242 279.7C246.3 290.9 248.9 297.3 249.8 299.1C250.7 300.9 251.8 302.6 253 304.4C254.3 306.2 255.8 307.8 257.5 309.4C259.3 311 260.8 312.1 262.2 312.9C263.6 313.7 265.2 314.4 267.2 315C269.2 315.6 271 315.7 272.8 315.4C274.6 315.1 275.7 314.6 276.3 313.8C276.9 313 277.2 312.4 277.2 311.9C277.2 311.4 276.8 310.9 275.9 310.3C275 309.7 273.9 308.6 272.4 307.1C270.9 305.5 269.4 303.4 267.9 300.6C266.3 297.9 265.3 295.6 264.7 294C264.4 293.2 264.1 292.3 263.8 291.5C262.5 292.1 261.3 292.8 260 293.4C257.5 294.7 255.7 295.4 254.6 295.5C253.5 295.5 252.6 295.4 251.8 294.8C251 294.2 250.5 293.4 250.3 292.4C250.3 291.9 250.1 291.4 250 290.9C250.3 291.2 250.6 291.6 250.9 291.9C251.5 292.6 252.3 293 253.2 293.2C254.2 293.4 258.5 291.6 266.1 287.9C273.7 284.2 279 281.9 282.1 281.1C285.1 280.3 290 279.5 296.7 278.6C303.4 277.7 307.2 276.8 308.1 276C309 275.1 309.4 274.2 309.3 273.4C309.3 272.5 309 271.8 308.6 271.3C308.2 270.8 307.8 270.4 307.3 270.1C306.8 269.8 306.1 269.6 305.3 269.5C304.4 269.5 299.6 270.1 291 271.6C282.3 273.1 276.9 274.2 274.8 275C272.7 275.8 269.8 277.1 266.3 279C262.8 280.9 260.8 281.7 260.4 281.6C260 281.6 259.4 280.4 258.6 278.4C258.2 277.4 257.8 276.3 257.4 275.3C256.1 276 254.8 276.7 253.4 277.4C250.8 278.8 248.9 279.5 247.8 279.5C246.7 279.5 245.8 279.1 245 278.3C244.2 277.5 243.9 276.8 244 276.1C244 275.8 244 275.4 244.1 275.1C244.5 275.5 244.9 275.9 245.3 276.3C246.1 277.1 246.9 277.5 247.6 277.5C248.3 277.5 251.9 275.8 258.3 272.5C264.6 269.2 268.8 267.2 270.7 266.5C272.7 265.8 274.8 265.2 277.3 264.7C279.7 264.2 284.3 263.6 291.1 262.9C297.8 262.2 301.5 261.5 302.2 260.8C302.9 260.1 303.2 259.3 303.2 258.4C303.2 257.5 303 256.7 302.5 256C302 255.3 301.5 254.8 300.9 254.5C300.3 254.2 299.4 254.1 298.1 254.1C296.8 254.1 293.5 254.4 288.1 255C282.7 255.6 278.6 256.2 275.7 256.8C272.8 257.4 270.2 258.1 267.9 258.9C265.7 259.7 262.8 261 259.4 262.9C256 264.8 254.1 265.6 253.7 265.4C253.3 265.2 252.8 264.1 252.1 262.2C251.8 261.2 251.4 260.2 251.1 259.3C249.6 260 248.1 260.8 246.6 261.5C243.6 263 241.6 263.6 240.6 263.4C239.6 263.2 238.9 262.8 238.4 262.2C237.9 261.6 237.6 260.9 237.5 260.1C237.5 259.7 237.5 259.3 237.4 258.9C237.8 259.3 238.3 259.7 238.7 260.1C239.6 260.9 240.5 261.3 241.3 261.3C242.1 261.3 245.6 259.7 251.5 256.4C257.5 253.2 261.4 251.2 263.2 250.5C265.1 249.8 267.1 249.2 269.3 248.7C271.5 248.2 276.3 247.7 283.5 247.2C290.7 246.7 294.7 246.2 295.5 245.7C296.3 245.2 296.8 244.7 297 244.2C297.2 243.7 297.1 242.9 296.9 241.8C296.6 240.7 296 239.9 295.1 239.3C294.2 238.7 290.1 238.7 282.8 239.2C275.5 239.7 269.9 240.4 266 241.4C262.1 242.4 258 243.9 253.6 246.1C251.4 247.2 249.2 248.3 247 249.3C245.5 245.5 244.1 241.7 242.6 237.8C241.1 234 239.7 230.2 238.2 226.3C236.8 227.1 235.5 227.9 234.1 228.7C231.4 230.3 229.6 231.1 228.8 231.1C228 231.1 227.2 230.8 226.5 230.2C225.7 229.6 225.2 228.8 225 227.8C225 227.3 224.8 226.8 224.7 226.3C225.1 226.7 225.5 227.1 225.9 227.5C226.7 228.3 227.6 228.7 228.7 228.7C229.8 228.7 232.4 227.5 236.5 225C240.6 222.5 244.4 220.6 247.8 219.1C251.2 217.6 254.2 216.6 256.9 216.2C259.5 215.7 264.6 215.4 272 215.3C279.4 215.3 283.5 214.8 284.1 214.1C284.8 213.4 285 212.4 284.8 211.2C284.6 209.9 284.1 209 283.3 208.4C282.5 207.8 280.3 207.5 276.7 207.4C273.1 207.4 269.3 207.4 265.4 207.4C261.5 207.4 258 207.8 255 208.4C252 209 249.5 209.6 247.5 210.3C245.5 211 243 212.2 239.9 214C236.8 215.8 235.1 216.6 234.8 216.6C234.5 216.6 234.3 216.4 234.1 216C233.9 215.6 233.5 214.5 232.9 212.8C232.6 211.9 232.3 211 232 210.2C230.6 211 229.2 211.8 227.8 212.6C225 214.2 223.1 214.9 222.1 214.8C221.1 214.8 220.4 214.5 219.9 214.1C219.4 213.7 219.1 213 218.9 211.9C218.9 211.4 218.7 210.8 218.6 210.3C219 210.7 219.4 211.1 219.8 211.5C220.6 212.3 221.5 212.7 222.4 212.7C223.3 212.7 226 211.4 230.2 208.9C234.4 206.4 238.3 204.3 241.9 202.9C245.5 201.4 248.5 200.5 250.8 200.1C253.1 199.7 258.1 199.6 265.6 199.7C273.1 199.7 277.2 199.6 277.9 199C278.6 198.4 278.9 197.6 278.9 196.6C278.9 195.6 278.6 194.7 277.9 193.8C277.2 192.9 276.6 192.4 276.1 192.2C275.6 192 274.1 191.9 271.6 191.8C269.1 191.7 265.4 191.7 260.5 191.7C255.6 191.7 252 191.9 249.7 192.3C247.4 192.7 244.7 193.4 241.8 194.4C238.9 195.4 236 196.7 233.2 198.4C230.4 200.1 228.8 200.9 228.5 200.9C228.2 200.9 227.7 199.8 226.9 197.5C226.5 196.4 226.1 195.2 225.7 194.1C224.3 194.9 222.9 195.8 221.5 196.6C218.7 198.3 216.8 199.1 215.8 199C214.8 199 214 198.6 213.5 198C212.9 197.4 212.6 196.7 212.5 195.8C212.5 195.4 212.5 194.9 212.4 194.5C212.8 194.9 213.2 195.3 213.6 195.7C214.4 196.5 215.3 196.9 216.4 196.9C217.5 196.9 220 195.6 224 193.1C228 190.6 231.9 188.5 235.6 187.1C239.3 185.6 242.4 184.7 244.8 184.3C247.2 183.9 252.2 183.9 259.7 184.2C267.2 184.5 271.3 184.4 271.8 184.1C272.3 183.8 272.8 183.3 273 182.8C273.2 182.3 273.2 181.7 273.1 180.9C273 180.1 272.8 179.4 272.4 178.8C272 178.2 271.5 177.7 270.8 177.3C270.1 176.9 266 176.6 258.5 176.3C251 176 246 176.1 243.6 176.4C241.2 176.7 238.8 177.3 236.6 178C234.4 178.7 232.1 179.6 229.7 180.6C227.4 181.7 225.6 182.7 224.3 183.5C223 184.4 222.3 184.8 222.1 184.7C221.9 184.7 221.4 183.5 220.6 181.3C219.8 179.1 219.3 176.9 219.1 174.5C218.9 172.1 219.1 169.9 219.7 167.9C220.3 165.8 220.9 164.4 221.6 163.6C222.3 162.8 222.9 162.3 223.5 162C224.1 161.7 225.1 161.6 226.4 161.6C227.7 161.6 229.2 162.1 230.6 163.2C232.1 164.3 233.6 166.2 235.1 168.9C236.7 171.6 237.5 173.4 237.7 174.2C237.9 175 239.6 175.1 242.7 174.6C244.3 174.4 245.8 174.1 247.4 173.9C246.7 172.3 246 170.8 245.4 169.2C244 166.1 242.3 163.2 240.3 160.5C238.3 157.9 236.3 156 234.6 155.1C232.8 154.1 231.5 153.5 230.5 153.3C229.5 153.1 228.4 153.1 227 153.2C226.3 153.2 225.6 153.2 225 153.3C225 153.3 225 153.1 225.1 153C225.1 152.8 226.1 152.5 227.7 152.1C229.4 151.7 230.8 151.5 231.9 151.5C233 151.5 234.6 151.8 236.4 152.5C238.3 153.2 240.1 154.3 241.8 155.9C243.6 157.5 245.1 159.5 246.5 161.9C247.9 164.4 248.9 165.7 249.7 166C250.5 166.3 251.1 166.3 251.5 166C251.9 165.7 252.1 165.3 252.2 164.7C252.2 164.1 252 162.9 251.2 161C250.4 159.1 249.3 157.4 248 155.7C246.6 154 245.1 152.7 243.3 151.7C242.4 151.2 241.5 150.7 240.7 150.2C240.9 150.2 241.1 150.2 241.3 150.1C241.7 150.1 242.3 150.1 243.2 150.4C244.1 150.7 245.2 151.2 246.4 151.9C247.7 152.6 248.9 153.5 250.2 154.7C251.5 155.9 253.1 158.1 255.2 161.5C257.2 164.8 258.6 166.5 259.2 166.6C259.8 166.6 260.3 166.6 260.7 166.3C261.1 166 261.2 165.3 261.1 164.2C261.1 163.1 260.4 161.6 259.3 159.5C258.2 157.4 257.2 155.8 256.1 154.6C255 153.4 253.7 152.3 252 151.2C251.2 150.7 250.3 150.1 249.5 149.6L249.9 149.5ZM216.8 155.4L217.1 155.4C217.1 155.4 217.1 155.6 217 155.7C217 155.9 215.5 156.8 212.9 158.3C210.3 159.9 208.2 161.4 206.8 162.9C205.3 164.4 204.3 165.9 203.6 167.5C202.9 169.1 202.6 170.9 202.6 172.9C202.6 174.9 202.8 176.9 203.3 178.6C203.8 180.4 207.1 189 213.3 204.5C219.4 220 222.7 228.4 223 229.6C223.1 230.2 223.3 230.9 223.4 231.5L222.1 231.5C221.2 231.5 220.7 231.4 220.5 231.1C220.3 230.8 217 222.4 210.5 206C204.1 189.5 200.6 180.5 200.3 178.8C199.9 177.1 199.7 175.3 199.7 173.4C199.7 171.5 199.9 169.7 200.4 168.3C200.6 167.6 200.9 166.8 201.1 166.1C199.2 167.3 197.4 168.5 195.5 169.6C191.8 172 189.2 173.9 187.6 175.5C186 177.1 184.6 178.9 183.2 180.9C181.8 183 181.2 184.1 181.3 184.3C181.3 184.3 181.3 184.5 181.4 184.6C181.6 184.4 181.9 184.2 182.1 184C182.6 183.6 183.3 183.4 184.1 183.3C185 183.3 185.7 183.3 186.1 183.4C186.6 183.6 187.1 184 187.6 184.6C188.1 185.2 188.4 186.2 188.6 187.7C188.8 189.2 188.6 190.7 188 192.3C187.4 193.9 186.5 195.1 185.4 196C184.2 196.9 183.3 197.3 182.5 197.3C181.7 197.3 180.9 197 180.2 196.4C179.4 195.8 178.8 195.1 178.4 194.2C178.2 193.8 178 193.3 177.8 192.9C177.7 193.9 177.5 194.9 177.4 195.8C177.1 197.8 177.1 200.3 177.3 203.3C177.3 204.8 177.5 206.3 177.6 207.9C179.8 206.8 182.1 205.7 184.3 204.7C188.8 202.5 191.1 201.5 191.3 201.6C191.3 201.6 191.5 201.6 191.6 201.7C189.3 203.1 187 204.5 184.7 206C180.1 208.8 177.6 210.3 177.1 210.3C176.6 210.3 176.3 210.2 176.1 209.9C175.9 209.6 175.7 208.4 175.4 206.2C175.1 204 175 201.8 175.1 199.4C175.2 197 175.6 194.4 176.4 191.3C177.2 188.3 178 185.9 178.7 184.2C179.5 182.5 180.6 180.7 181.9 178.8C183.3 176.8 184.8 175 186.4 173.4C188.1 171.7 190.4 169.9 193.3 168C196.2 166 199.7 163.9 203.8 161.7C207.9 159.4 211 157.9 213.2 157C215.3 156.1 216.5 155.7 216.7 155.7L216.8 155.4ZM225 165.4C224.2 166.2 223.7 167.2 223.4 168.3C223.1 169.5 223 170.9 223.1 172.6C223.1 174.3 223.5 176 224 177.9C224.2 178.8 224.5 179.8 224.7 180.7C225.3 180.4 225.9 180.1 226.5 179.8C227.7 179.2 227.8 177.3 226.9 174.2C226 171.1 225.7 168.6 225.9 166.8C225.9 165.9 226.1 165 226.2 164.2C225.8 164.6 225.4 165 225 165.4ZM193.5 176.8C194.2 176.8 194.6 176.8 194.8 177.1C195 177.3 195.1 177.9 195.2 179C195.2 180.1 195.1 181 194.5 181.8C193.9 182.6 193.2 183 192.5 183.1C191.7 183.1 191.1 183.1 190.7 182.5C190.3 182 190.1 181.5 190.1 180.9C190.1 180.3 190.2 179.7 190.5 179C190.8 178.3 191.2 177.8 191.7 177.4C192.2 177 192.8 176.8 193.5 176.8ZM246.2 187.4C243.6 188 241.5 188.7 239.9 189.6C239.1 190 238.3 190.5 237.6 190.9C239.2 190.6 240.7 190.2 242.3 189.9C245.4 189.2 249.7 188.7 255 188.4C257.7 188.3 260.4 188.1 263 188C261.9 187.8 260.8 187.5 259.6 187.3C257.4 186.8 255.2 186.6 253.2 186.6C251.2 186.6 248.8 186.9 246.2 187.5L246.2 187.4ZM230.8 191C229.8 191.6 229.6 192.7 230.2 194.4C230.5 195.2 230.8 196.1 231.1 196.9C231.7 196.6 232.4 196.3 233 196C234.3 195.4 234.6 194.3 234 192.6C233.4 190.9 233 190.1 232.7 190.1C232.4 190.1 231.8 190.4 230.8 191ZM204.2 200.4C204.4 200.5 204.7 200.7 204.9 200.8C205.4 201.1 205.7 201.5 205.9 202C206.1 202.5 206.2 203.1 206.2 203.8C206.2 204.5 206.1 205.1 205.8 205.7C205.5 206.3 201.7 208.8 194.4 213.2C187.1 217.6 183.3 220.2 183 221C182.7 221.8 182.8 222.8 183.1 223.9C183.3 224.5 183.5 225.1 183.7 225.7C183.5 225.7 183.2 225.7 183 225.8C182.5 225.8 181.9 225 181.2 223.2C180.5 221.3 183.9 218.1 191.3 213.6C198.7 209.1 202.8 206.4 203.4 205.5C204.1 204.6 204.5 203.8 204.6 203.1C204.6 202.4 204.6 201.8 204.5 201.2C204.5 200.9 204.3 200.6 204.2 200.3L204.2 200.4ZM196 201.8C196 201.9 196 202.1 195.9 202.2C195.9 202.5 195.1 203.1 193.7 204C192.3 204.9 189.9 206.3 186.4 208.1C184.6 209 182.9 210 181.1 210.9C183.6 209.4 186.1 207.9 188.6 206.3C191.1 204.8 193.6 203.3 196.1 201.7L196 201.8ZM252.2 203.7C249.5 204.4 247.4 205.1 246.1 205.9C245.4 206.3 244.7 206.7 244.1 207.1C246.1 206.7 248 206.3 250 205.9C253.9 205.1 258 204.6 262.4 204.3C264.6 204.2 266.8 204 269 203.9C268.2 203.7 267.3 203.5 266.5 203.3C264.8 202.9 262.7 202.7 260.2 202.7C257.7 202.7 255 203 252.3 203.7L252.2 203.7ZM237.3 207.3C236.1 208 235.8 209.2 236.4 210.8C236.7 211.6 237 212.5 237.3 213.3C238 213 238.8 212.6 239.5 212.3C241 211.6 241.4 210.4 240.8 208.8C240.2 207.1 239.8 206.3 239.5 206.3C239.2 206.3 238.5 206.6 237.3 207.3ZM203 215.7L203 216C203 216.2 202.4 216.7 201.2 217.5C200 218.3 197.5 219.8 193.6 221.9C191.6 223 189.7 224.1 187.7 225.1C188.5 224.5 189.3 223.9 190 223.3C191.6 222.1 194.1 220.6 197.6 218.6C199.4 217.6 201.1 216.6 202.9 215.7L203 215.7ZM210.3 216.3C210.6 216.6 211 217 211.3 217.3C212 218 212.2 219 212 220.2C211.8 221.5 207.9 224.4 200.3 228.9C192.7 233.4 188.8 236 188.6 236.5C188.4 237.1 188.6 238 189 239.3C189.2 239.9 189.5 240.6 189.7 241.2C189.5 241.2 189.2 241.2 189 241.3C188.5 241.3 187.9 240.8 187.2 239.4C186.5 238 186.2 237 186.2 236.5C186.2 236 190 233.5 197.5 229.1C205 224.8 209.1 222.1 209.8 221C210.5 219.9 210.7 218.8 210.5 217.8C210.5 217.3 210.3 216.7 210.2 216.2L210.3 216.3ZM260.2 219.6C257 220.3 254.5 221.1 252.9 222.1C252.1 222.6 251.2 223.1 250.4 223.6C252.3 223.2 254.1 222.7 256 222.3C259.7 221.4 263.8 220.8 268.3 220.4C270.5 220.2 272.8 220 275 219.8C274.6 219.7 274.1 219.5 273.7 219.4C272.8 219.1 271.2 218.9 268.7 218.8C266.2 218.7 263.4 219 260.2 219.7L260.2 219.6ZM293.2 221.4C292.6 221.9 292.2 222.4 292 223C291.8 223.6 291.8 224.6 292 226.1C292.2 227.6 292.7 228.8 293.6 229.9C294.5 231 295.2 231.6 295.6 231.8C296.1 232 296.8 232 297.6 231.9C298.5 231.9 299.2 231.5 299.6 231C300.1 230.5 300.4 229.9 300.6 229.2C300.8 228.5 300.8 227.5 300.6 226.3C300.4 225 299.8 223.8 298.8 222.6C297.8 221.4 296.8 220.8 295.6 220.7C294.4 220.7 293.6 220.7 293 221.3L293.2 221.4ZM243.9 223.5C242.6 224.2 242.3 225.4 242.9 227.2C243.2 228.1 243.5 229 243.8 229.8C244.5 229.4 245.3 229 246 228.6C247.5 227.8 248 226.6 247.5 225.1C247 223.5 246.6 222.7 246.3 222.6C246 222.6 245.2 222.8 244 223.5L243.9 223.5ZM296.1 222.9C296.9 222.9 297.6 223.4 298.1 224.2C298.7 225 299 225.8 299.1 226.6C299.1 227.4 299.1 228.1 298.7 228.8C298.3 229.5 297.8 229.8 297.2 229.8L296.3 229.8C296.5 229.8 296.7 229.6 296.9 229.5C297.3 229.3 297.6 228.8 297.8 227.9C298 227 298 226.3 297.8 225.7C297.6 225.1 297.3 224.6 296.8 224.1C296.3 223.6 295.8 223.4 295.3 223.4L294.6 223.4C294.6 223.4 294.6 223.2 294.7 223.1C294.7 222.9 295.2 222.9 296 223L296.1 222.9ZM272.2 223.6C268.2 223.8 264.3 224.3 260.5 225.2C256.7 226.1 253.2 227.3 250.1 228.7C247 230.2 245.1 231.2 244.5 231.9C243.9 232.6 243.6 233.4 243.6 234.4C243.6 235.4 243.9 236.3 244.6 237C245.3 237.8 246.1 238.2 246.9 238.3C247.8 238.3 249.4 237.8 251.9 236.5C254.3 235.2 256.6 234.2 258.8 233.6C260.9 232.9 262.8 232.4 264.5 232.1C266.2 231.8 269.3 231.6 274 231.4C278.7 231.2 281.4 230.7 282.2 229.9C283 229.1 283.4 228.2 283.4 227.1C283.4 226 283 225.1 282.2 224.5C281.4 223.8 280.5 223.4 279.6 223.3C278.6 223.3 276.1 223.3 272.1 223.4L272.2 223.6ZM209.2 231.8L209.5 231.8C209.5 231.8 209.5 232 209.4 232.1C209.4 232.3 208.7 232.7 207.6 233.4C206.5 234.1 204 235.5 200 237.7C198 238.8 196 239.9 194 240.9C194.9 240.3 195.8 239.6 196.6 239C198.4 237.7 200.8 236.2 204.1 234.4C207.3 232.6 209 231.8 209.2 231.8ZM224.7 233.3C225.6 233.3 226.6 233.5 227.5 233.6C229.4 233.8 230.6 234.2 231.3 234.8C232 235.4 232.5 236.2 232.9 237.2C233.3 238.2 233.5 259.1 233.5 299.9C233.5 340.7 233.7 361.7 234.2 362.8C234.7 364 235.3 365 236 365.7C236.7 366.5 237.6 367.2 238.6 367.8C239.7 368.4 241.1 368.7 242.8 368.8C244.6 368.8 252.5 367.7 266.5 365.1C280.5 362.6 288.3 361 289.8 360.4C291.3 359.8 292.6 359 293.8 357.9C295 356.8 296 355.3 296.9 353.3C297.8 351.3 298.2 345.2 298.2 334.9C298.2 324.6 298.8 319.2 300.1 318.7C301.4 318.2 302.1 318 302.3 318.1C302.5 318.1 302.5 324.7 302.4 337.5C302.4 350.3 302 357.5 301.4 358.8C300.8 360.2 300 361.3 298.9 362.3C297.8 363.3 293.8 364.7 286.8 366.6C279.8 368.5 270.8 370.4 259.9 372.3C249 374.3 242.9 375.2 241.6 375.2C240.3 375.2 239.1 375.1 237.9 374.8C236.7 374.5 235.8 374.2 235 373.8C234.2 373.4 233.3 372.6 232.2 371.3C231.1 370 230.3 368.3 229.7 366C229.1 363.7 228.8 341.8 228.8 300.3C228.8 258.8 228.6 237.6 228.2 236.8C227.8 236 227.1 235.2 226.2 234.4C225.7 234 225.2 233.6 224.7 233.2L224.7 233.3ZM266.8 235.7C264.1 236.3 261.7 237.2 259.6 238.3C258.6 238.9 257.6 239.5 256.5 240.1C258.4 239.6 260.3 239.1 262.2 238.6C266 237.6 270.1 236.9 274.5 236.4C276.7 236.2 278.9 235.9 281.1 235.7C280.6 235.6 280 235.4 279.5 235.3C278.4 235 276.7 234.9 274.4 234.9C272.1 234.9 269.5 235.2 266.8 235.8L266.8 235.7ZM221.6 238.5C222.9 238.8 223.8 239.3 224.4 240C225 240.7 225.3 242.2 225.4 244.6C225.4 245.8 225.4 247 225.5 248.1L222.7 248.1C220.8 248.1 219.3 248.4 218 249C217.4 249.3 216.7 249.6 216.1 249.9L216.1 245.6C216.1 242.8 216.3 240.9 216.8 240.2C217.3 239.4 217.9 238.9 218.6 238.6C219.3 238.3 220.3 238.3 221.5 238.6L221.6 238.5ZM250.9 239.6C250.2 240.1 249.6 240.3 249 240.3L248.1 240.3C248.4 241.2 248.8 242.2 249.1 243.1C249.4 244 249.8 245 250.1 245.9C250.8 245.5 251.6 245.1 252.3 244.7C253.8 243.9 254.2 242.7 253.6 241.2C253 239.6 252.6 238.8 252.3 238.8C252 238.8 251.5 239 250.8 239.5L250.9 239.6ZM213 239.5C213 239.8 213 240.1 213.1 240.4C213.1 241 210.4 242.9 204.6 246C198.8 249.1 195.8 251 195.4 251.4C195 251.9 194.8 252.4 194.8 253C194.8 253.6 195 254.4 195.4 255.4C195.6 255.9 195.8 256.4 196 256.9L195 256.9C194.3 256.9 193.7 256.2 193.1 254.7C192.5 253.2 192.3 252.3 192.4 251.9C192.5 251.5 196 249.4 202.8 245.4C206.2 243.4 209.6 241.5 213 239.5ZM213 249.5C213 249.5 213.2 249.7 213.3 249.8C212.9 250 212.5 250.3 212.1 250.5C211.3 251 209.2 252.1 205.7 253.9C203.9 254.8 202.2 255.7 200.4 256.5C202.4 255.3 204.5 254 206.5 252.8C210.6 250.3 212.7 249.2 212.9 249.4L213 249.5ZM272.8 252C270 252.7 267.6 253.6 265.8 254.8C264.9 255.4 263.9 256 263 256.6C264.7 256.1 266.3 255.6 268 255.1C271.3 254.1 275.4 253.3 280.1 252.6C282.5 252.3 284.9 251.9 287.3 251.6C287.2 251.6 287 251.4 286.9 251.3C286.6 251.1 284.9 251 281.8 251C278.7 251 275.7 251.3 272.9 252L272.8 252ZM256.6 256.1C255.4 256.8 255.1 258 255.7 259.6C256 260.4 256.3 261.3 256.6 262.1C257.2 261.8 257.9 261.5 258.5 261.2C259.8 260.6 260.3 259.7 260 258.6C259.7 257.4 259.4 256.5 259 256C258.6 255.4 257.8 255.5 256.7 256.1L256.6 256.1ZM213 258.9L213 259.8C213 260.4 211 261.8 207.1 263.9C203.2 266.1 201.2 267.5 201.1 268.3C201.1 269.1 201.1 270 201.5 270.9C201.7 271.4 201.9 271.9 202.1 272.4C201.8 272.4 201.5 272.4 201.2 272.5C200.6 272.5 200 271.7 199.3 269.9C198.6 268 200.7 265.7 205.6 263C208 261.6 210.5 260.3 212.9 258.9L213 258.9ZM219.6 258.9C220.3 258.9 221 259.1 221.8 259.5C222.6 259.9 223.4 260.6 224.3 261.7C225.2 262.8 225.6 270.3 225.6 284.2C225.6 298.1 225.6 305.2 225.3 305.4C225.1 305.6 224.7 305.7 224 305.7C223.3 305.7 222.4 305.4 221.4 304.8C220.3 304.2 219.4 303.6 218.8 302.9C218.2 302.2 217.5 301.3 217 300.3C216.5 299.2 216.3 292.9 216.3 281.3C216.3 269.7 216.3 263.5 216.6 262.5C216.8 261.5 217.2 260.7 217.8 260C218.4 259.3 219 259 219.7 259L219.6 258.9ZM280.7 267.9C277.5 268.6 275.2 269.2 274 269.8C272.7 270.4 271.6 271.1 270.6 271.9C270.1 272.3 269.6 272.7 269.1 273.1C271 272.5 272.9 271.9 274.8 271.3C278.6 270.1 282.6 269.2 286.8 268.5C288.9 268.2 291 267.8 293.1 267.5C293.1 267.5 293.1 267.3 293 267.2C293 267 291.6 266.9 289.2 266.9C286.8 266.9 283.9 267.2 280.7 267.9ZM213 268.3L213 268.9C213 269.3 211.9 270 209.8 271C208.7 271.5 207.7 272 206.6 272.5C207.7 271.8 208.7 271.1 209.8 270.4C210.9 269.7 211.9 269 213 268.3ZM262.4 272.7C261.4 273.3 261.2 274.4 261.8 275.9C262.1 276.7 262.4 277.5 262.7 278.3C263.3 278.1 264 277.8 264.6 277.6C265.9 277.1 266.2 276 265.6 274.4C265 272.7 264.6 271.9 264.3 271.9C264 271.9 263.4 272.2 262.4 272.8L262.4 272.7ZM213 278L213.3 278L213.3 278.7C213.3 279.2 212.3 280 210.2 281.2C208.2 282.4 207.1 283.4 207.1 284.1C207.1 284.8 207.3 285.7 207.7 286.6C207.9 287 208.1 287.5 208.3 287.9C208 287.9 207.7 287.9 207.4 288C206.8 288 206.2 287.2 205.5 285.4C204.8 283.6 205.8 281.8 208.6 280.3C211.3 278.7 212.8 277.9 213 277.9L213 278ZM235.2 280.1C235.5 280.4 235.9 280.8 236.2 281.1C236.9 281.8 237.2 282.7 237.1 283.7C237.1 284.8 236.8 285.5 236.4 285.9C236 286.3 235.7 286.5 235.5 286.5L235.2 286.5C235.2 285.6 235.4 284.7 235.5 283.9C235.7 282.1 235.7 281.1 235.5 280.7C235.5 280.5 235.3 280.3 235.2 280.1ZM329.5 282.3C329.1 282.6 328.8 284.1 328.6 286.7C328.4 289.3 328 291.6 327.4 293.5C326.8 295.4 325.8 297.5 324.3 299.8C322.8 302.2 321.3 304 319.8 305.4C319 306.1 318.2 306.8 317.5 307.5C318.6 306.9 319.7 306.2 320.9 305.6C323.1 304.3 324.8 303.1 325.9 302.1C327 301 328 299.6 329.1 297.7C330.2 295.8 331.1 293.8 331.7 291.5C332.4 289.2 332.7 287.3 332.7 285.6C332.7 283.9 332.5 282.9 332.1 282.5C331.7 282.1 331.3 281.9 330.8 281.9C330.3 281.9 329.9 282 329.5 282.3ZM278.8 284.8C276.8 285.5 274.9 286.2 272.9 286.9C273.5 288.6 274.1 290.2 274.7 291.9C275.9 295.2 276.8 297.7 277.6 299.3C278.4 300.9 279.2 302 279.9 302.8C280.7 303.6 281.6 303.9 282.7 303.8C283.8 303.8 284.7 303.2 285.5 302.3C286.3 301.4 287 300.3 287.5 298.9C288.1 297.5 288.4 295.8 288.5 293.8C288.5 291.7 288.5 290 288.2 288.5C287.9 287 287.6 285.7 287.2 284.5C286.8 283.3 286.3 282.7 285.6 282.7C284.9 282.7 282.6 283.4 278.7 284.8L278.8 284.8ZM321.3 284.1C320.9 284.6 320.7 286.2 320.6 288.8C320.6 291.4 320.2 293.8 319.6 295.7C319 297.7 318 299.8 316.5 302.2C315 304.6 313.5 306.5 312 308.1C311.2 308.9 310.4 309.7 309.7 310.5C310.7 309.9 311.7 309.3 312.6 308.7C314.6 307.5 316.3 306.2 317.9 304.6C319.5 303 320.8 301.2 322 299.2C323.2 297.1 324 295.5 324.3 294.2C324.7 292.9 324.9 291.4 325 289.5C325.1 287.6 325 286.3 324.9 285.5C324.7 284.7 324.5 284.2 324.2 283.9C323.9 283.6 323.5 283.5 322.9 283.5C322.3 283.5 321.8 283.7 321.4 284.2L321.3 284.1ZM313.2 286C312.7 286.6 312.5 288 312.5 290.3C312.5 292.6 312.2 294.8 311.6 296.9C311 299.1 310.1 301.2 308.8 303.2C307.5 305.3 306 307.2 304.3 309.1C303.4 310 302.5 311 301.7 311.9C302.9 311.1 304.1 310.3 305.4 309.5C307.8 307.9 309.8 306.3 311.3 304.6C312.8 302.9 313.8 301.5 314.5 300.2C315.2 298.9 315.8 297.5 316.3 295.8C316.8 294.1 317 292.4 317 290.5C317 288.6 316.8 287.3 316.4 286.5C316 285.7 315.5 285.3 314.9 285.2C314.3 285.2 313.8 285.3 313.3 285.9L313.2 286ZM305 286.7C304.5 287.2 304.3 288.6 304.4 290.8C304.4 293.1 304.2 295.5 303.5 298C302.8 300.5 301.9 302.8 300.7 304.6C299.5 306.5 298 308.4 296 310.5C295 311.5 294 312.6 293.1 313.6C293.7 313.3 294.4 313 295 312.7C296.3 312.1 297.6 311.3 299.1 310.2C300.6 309.1 301.9 307.9 303.1 306.7C304.3 305.4 305.2 304.2 306 302.9C306.8 301.6 307.5 300 308 298C308.6 296 308.9 294.3 308.9 292.7C308.9 291.1 308.8 289.8 308.5 288.6C308.2 287.4 307.7 286.7 306.9 286.4C306.1 286.1 305.5 286.2 305 286.7ZM296.2 288.5C295.7 289 295.6 290.4 295.8 292.6C296 294.9 295.8 297.1 295.2 299.4C294.6 301.7 293.9 303.6 293 305.1C292.1 306.7 290.5 308.8 288 311.6C286.8 313 285.6 314.3 284.3 315.7C285.7 314.9 287 314 288.4 313.2C291.1 311.5 293.2 310 294.5 308.5C295.9 307 297 305.5 297.9 303.9C298.8 302.3 299.4 300.8 299.8 299.2C300.2 297.6 300.3 295.9 300.2 294.1C300.2 292.2 299.9 290.9 299.6 290C299.3 289.1 298.8 288.5 298 288.2C297.2 287.9 296.6 288 296.1 288.5L296.2 288.5ZM268.4 289.2C267.7 289.6 267.6 290.5 268.1 292C268.6 293.5 269.6 295.4 271 297.7C272.5 300.1 273.8 301.8 275 302.8C275.6 303.3 276.2 303.9 276.8 304.4C276.1 303.2 275.3 302 274.6 300.9C273.1 298.5 272.2 296.7 271.7 295.5C271.2 294.2 270.9 292.9 270.7 291.4C270.5 289.9 270.3 289.1 270 288.9C269.7 288.7 269.2 288.9 268.5 289.2L268.4 289.2ZM241.4 295.7C241.7 296 242.1 296.4 242.4 296.7C243.1 297.4 243.4 298.3 243.3 299.5C243.3 300.7 242.6 301.7 241.4 302.6C240.2 303.5 238.9 304.2 237.4 304.8C236.7 305.1 235.9 305.4 235.2 305.7C235.2 305.5 235.2 305.2 235.3 305C235.3 304.5 236.1 304 237.5 303.4C238.9 302.8 239.8 302.2 240.4 301.6C241 301 241.4 300.1 241.6 299C241.8 297.8 241.8 297 241.6 296.5C241.6 296.3 241.4 296 241.3 295.8L241.4 295.7ZM213 296.8C213 297.9 213 299.1 213.1 300.2C213.1 302.5 213.1 303.6 212.8 303.7C212.7 303.7 212.5 303.7 212.4 303.8C212.1 302.9 211.8 301.9 211.5 301C210.9 299.1 211 298 211.8 297.5C212.2 297.3 212.6 297 213 296.8ZM217.2 306.6C217.7 306.6 219 307.2 221.2 308.4C223.3 309.6 224.6 310.5 225 311.2C225.4 311.9 225.6 312.6 225.6 313.3C225.6 314 225.4 314.6 225 315.2C224.6 315.8 223.7 315.8 222.2 315.3C220.7 314.8 219.5 314.1 218.4 313.1C217.3 312.1 216.6 311 216.2 309.9C215.8 308.7 215.8 307.9 216.1 307.4C216.4 306.9 216.8 306.7 217.3 306.7L217.2 306.6ZM217.1 322.1C217.5 322.1 217.9 322.3 218.3 322.4C219.1 322.6 220.4 323.3 222.4 324.6C224.4 325.9 225.4 328.2 225.5 331.7C225.5 335.1 225.5 337.4 225.4 338.5C225.4 339 225.2 339.6 225.1 340.1C224.2 339.7 223.2 339.3 222.3 338.9C220.4 338.1 219.1 337.4 218.2 336.7C217.3 336 216.9 333.4 217 328.9C217 326.6 217 324.4 217.1 322.1ZM274.4 325.8C274.6 325.8 274.8 325.8 275 325.9C273.7 326.3 272.4 326.7 271 327.1C268.4 327.9 264.7 328.9 259.9 330C255.1 331.2 251.4 331.8 248.6 331.8C245.8 331.8 242.9 331.4 239.8 330.6C236.7 329.8 235.1 329.1 235.1 328.4L235.1 327.4L235.4 327.4C235.6 327.4 236.9 327.8 239.4 328.7C241.8 329.6 244.4 330.1 247 330.2C249.6 330.2 254.8 329.6 262.4 328C270 326.4 274 325.7 274.4 325.8ZM280.7 326.3L281.1 326.3L281.1 335.6C281.1 341.8 280.7 345.7 279.9 347.5C279.1 349.3 278.1 350.7 276.8 351.8C275.5 352.9 273.8 353.7 271.5 354.2C270.4 354.4 269.3 354.7 268.1 354.9C268.3 354 268.6 353.1 268.8 352.3C269.3 350.5 269.5 349 269.5 347.6C269.5 346.2 269.2 345.1 268.5 344.1C267.8 343.1 267.2 342.5 266.6 342.2C266 341.9 264.8 341.8 263.1 341.9C261.3 341.9 259.1 342.7 256.5 344C253.9 345.3 252 345.9 250.9 345.9C249.8 345.9 248.9 345.6 248.1 345C247.3 344.4 246.9 343.7 246.8 342.9C246.8 342.1 246.8 341.5 246.9 341.1C247.1 340.7 248.2 339.4 250.3 337.1C252.3 334.8 254.3 333.6 256 333.3C257.7 333 262.2 331.8 269.3 329.6C276.4 327.4 280.1 326.4 280.4 326.4L280.7 326.3ZM235.2 331.8C236.4 332.1 237.6 332.4 238.9 332.7C241.3 333.3 243.4 333.6 245.2 333.7C246.1 333.7 247 333.7 247.8 333.8C247.2 334.6 246.5 335.4 245.9 336.2C244.6 337.8 243.8 339 243.4 340C243 341 243 342.3 243.4 343.8C243.8 345.4 244.6 346.6 245.7 347.6C246.9 348.6 248.3 349.2 249.9 349.4C251.6 349.6 253.9 349 257.1 347.6C260.2 346.2 262.4 345.5 263.5 345.5C264.6 345.5 265.4 345.9 265.5 346.7C265.7 347.5 265.5 349.2 264.8 351.7C264.1 354.2 259 356.4 249.6 358C244.9 358.8 240.1 359.7 235.4 360.5C235.4 355.7 235.4 350.9 235.3 346.1C235.3 341.3 235.3 336.5 235.2 331.7L235.2 331.8ZM289.4 344.5C291.7 344.9 293.1 345.4 293.5 346C293.9 346.6 294 347.2 293.8 347.8C293.6 348.4 293.1 348.8 292.2 349C291.3 349.2 290 349 288.2 348.6C286.4 348.1 285.4 347.5 285.1 346.8C284.8 346.1 284.9 345.5 285.2 344.9C285.6 344.3 287 344.2 289.3 344.6L289.4 344.5ZM286.9 350.2C288.6 350.5 289.8 351 290.7 351.7C291.6 352.4 292.1 353.2 292.2 354.2C292.2 355.2 292.2 355.9 292.1 356.3C291.9 356.7 291.1 357.3 289.8 358.1C288.4 358.9 280.8 360.6 266.8 363.1C252.8 365.6 245 366.9 243.2 366.8C241.4 366.8 240.3 366.5 239.7 366.2C239.1 365.9 238.4 365.3 237.7 364.4C236.9 363.5 236.6 363 236.8 362.8C237 362.6 241.2 361.8 249.4 360.3C257.6 358.8 261.9 358.1 262.4 358.1L263.1 358.1C263.1 358.3 262.9 358.6 262.8 358.8C262.6 359.3 262 359.7 260.9 360C259.8 360.3 259.2 360.7 259 361.2C259 361.4 258.8 361.7 258.7 361.9C259.5 361.9 260.4 361.9 261.2 362C262.9 362 264.2 362 265.2 361.9C266.2 361.7 267.2 361.3 268.3 360.7C269.4 360.1 269.9 359.7 269.8 359.4C269.7 359.1 269.3 358.9 268.5 358.8C268.1 358.8 267.7 358.8 267.3 358.7C267.3 358.5 267.3 358.2 267.4 358C267.4 357.5 268.4 357.1 270.2 356.8C272 356.5 273.7 356.1 275.3 355.5C277 354.9 278.9 353.8 281.2 352.3C283.4 350.7 285.4 350.1 287.1 350.4L286.9 350.2ZM216.2 354.2C216.4 354.7 216.6 355.3 216.8 355.8C217.2 356.9 218 358 219.3 359C220.6 360.1 221.6 360.7 222.5 360.8C223.4 360.8 224.1 360.6 224.7 359.9C225 359.6 225.3 359.2 225.6 358.9C225.6 360.1 225.6 361.4 225.7 362.6C225.7 365.1 226 366.9 226.3 368C226.4 368.6 226.6 369.2 226.7 369.8C226 369.5 225.2 369.1 224.5 368.8C223 368.1 221.8 367.3 220.7 366.3C219.6 365.3 218.7 364.1 217.9 362.6C217.1 361.1 216.6 359.4 216.4 357.3C216.4 356.3 216.2 355.2 216.1 354.2L216.2 354.2Z" fill="#ef286f" fill-rule="nonzero" opacity="1" stroke="none"/>
<path d="M121.5 246.3C121.4 268.3 121.3 290.3 121.2 312.3L125.5 312.3L125.5 246.6C125.5 202.8 124.9 180.8 123.6 180.6C123 180.5 122.4 180.4 121.7 180.3C121.6 202.3 121.5 224.3 121.4 246.3L121.5 246.3ZM90.8 246L90.8 302.4L95.1 302.4L95.1 246.3C95.1 208.9 94.4 190.1 92.9 189.9C92.2 189.8 91.5 189.7 90.7 189.6L90.7 246L90.8 246ZM115 246C115 281.1 115.7 298.8 117.2 299C117.9 299.1 118.6 299.2 119.4 299.3L119.4 193.4L115.1 193.4L115.1 246.1L115 246ZM157.7 246.3L157.7 299.3L162 299.3L162 193.4L157.7 193.4L157.7 246.4L157.7 246.3ZM84.6 246.7L84.6 282.6L88.9 282.6L88.9 210.7L84.6 210.7L84.6 246.6L84.6 246.7ZM151.5 246.3C151.5 269.2 152.2 280.8 153.7 281C154.4 281.1 155.1 281.2 155.9 281.3L155.9 211.9L151.6 211.9L151.6 246.3L151.5 246.3ZM109.4 246.7L109.4 280.1L113.1 280.1L113.1 213.2L109.4 213.2L109.4 246.6L109.4 246.7ZM97 246.7L97 275.2L100.7 275.2C100.8 265.8 100.9 256.4 101 247C101.2 228.2 100.6 218.7 99.1 218.5C98.4 218.4 97.7 218.3 96.9 218.2L96.9 246.7L97 246.7ZM163.9 246.7L163.9 275.2L168.2 275.2L168.2 218.2L163.9 218.2L163.9 246.7ZM127.4 246.7L127.4 267.8L131.7 267.8L131.7 225.7L127.4 225.7L127.4 246.8L127.4 246.7ZM146 246.7L146 267.8L149.7 267.8L149.7 225.7L146 225.7L146 246.8L146 246.7ZM78.4 246.3C78.4 254.8 79.1 259.1 80.6 259.3C81.3 259.4 82 259.5 82.8 259.6L82.8 233.6L78.5 233.6L78.5 246.3L78.4 246.3ZM170.7 246.3C170.7 254.8 171.4 259.1 172.9 259.3L175.1 259.6L175.1 233.6L170.8 233.6L170.8 246.3L170.7 246.3ZM133.6 246.3L133.6 257.1L137.9 257.1L137.9 235.4L133.6 235.4L133.6 246.2L133.6 246.3ZM176.9 246.7C176.9 252.1 177.6 254.9 179.1 255.1C179.8 255.2 180.5 255.3 181.3 255.4L181.3 238.7L177 238.7L177 246.8L176.9 246.7ZM102.9 246.3C102.7 250.6 103.3 252.9 104.8 253.1C105.5 253.2 106.2 253.3 107 253.4C107.1 251.2 107.2 249.1 107.3 246.9C107.5 242.6 106.9 240.3 105.4 240.1C104.7 240 104 239.9 103.2 239.8C103.1 242 103 244.1 102.9 246.3ZM72.2 246.7L72.2 251.7L76.5 251.7L76.5 241.8L72.2 241.8L72.2 246.8L72.2 246.7ZM139.8 247L139.8 249.8L141.7 249.8C142.9 249.8 143.7 248.9 143.9 247C144 246.1 144.1 245.1 144.2 244.2L139.9 244.2L139.9 247L139.8 247Z" fill="url(#LinearGradient_2)" fill-rule="nonzero" opacity="1" stroke="none"/>
<g opacity="1">
<clipPath clip-rule="evenodd" id="ClipPath">
<path d="M256 33.7C133.2 33.7 33.7 133.2 33.7 256C33.7 378.8 133.2 478.3 256 478.3C378.8 478.3 478.3 378.8 478.3 256C478.3 133.2 378.8 33.7 256 33.7Z"/>
</clipPath>
<g clip-path="url(#ClipPath)">
<path d="M256 33.7C133.2 33.7 33.7 133.2 33.7 256C33.7 378.8 133.2 478.3 256 478.3C378.8 478.3 478.3 378.8 478.3 256C478.3 133.2 378.8 33.7 256 33.7Z" fill="none" opacity="1" stroke="#faeef2" stroke-linecap="butt" stroke-linejoin="round" stroke-width="31.36"/>
</g>
</g>
<g opacity="1">
<clipPath clip-rule="evenodd" id="ClipPath_2">
<path d="M256 52.6C143.7 52.6 52.6 143.7 52.6 256C52.6 368.3 143.7 459.4 256 459.4C368.3 459.4 459.4 368.4 459.4 256C459.4 143.6 368.3 52.6 256 52.6Z"/>
</clipPath>
<g clip-path="url(#ClipPath_2)">
<path d="M256 52.6C143.7 52.6 52.6 143.7 52.6 256C52.6 368.3 143.7 459.4 256 459.4C368.3 459.4 459.4 368.4 459.4 256C459.4 143.6 368.3 52.6 256 52.6Z" fill="none" opacity="1" stroke="#ef286f" stroke-linecap="butt" stroke-linejoin="round" stroke-width="31.36"/>
</g>
</g>
<g opacity="1">
<g opacity="1">
<path d="M145.9 296.6L116 149.2L139.8 149.2L159.2 251.8L177.5 149.2L201.9 149.2L171.9 296.6C171.9 296.6 145.9 296.6 145.9 296.6Z" fill="#fefefe" fill-rule="nonzero" opacity="1" stroke="none"/>
<path d="M255.8 298.4C240.6 298.4 229.8 294.3 223.2 286C216.6 277.8 213.3 265.7 213.3 249.8L213.3 195.4C213.3 187.6 214 180.8 215.5 175C217 169.3 219.4 164.3 222.7 160.1C226 155.9 230.4 152.7 235.9 150.6C241.4 148.5 248 147.4 255.8 147.4C270.9 147.4 281.8 151.5 288.4 159.6C295 167.7 298.3 179.6 298.3 195.3L298.3 249.7C298.3 257.4 297.5 264.2 296 270C294.5 275.8 292.1 280.9 288.8 285.2C285.5 289.5 281.1 292.7 275.6 294.9C270.1 297.1 263.5 298.2 255.8 298.2L255.8 298.4ZM249.1 277.3C251 278.1 253.2 278.5 255.9 278.5C258.6 278.5 260.7 278.1 262.6 277.3C264.4 276.5 265.9 275.5 267 274.3C268.1 273.1 269 271.4 269.6 269.4C270.2 267.4 270.6 265.4 270.8 263.4C271 261.4 271.1 259 271.1 256.2L271.1 189.3C271.1 185.7 270.9 182.8 270.6 180.4C270.2 178 269.5 175.8 268.5 173.7C267.5 171.6 265.9 170 263.8 169C261.7 168 259.1 167.4 255.9 167.4C252.7 167.4 250 167.9 247.9 169C245.8 170 244.2 171.6 243.2 173.7C242.2 175.8 241.5 178 241.2 180.4C240.8 182.8 240.7 185.7 240.7 189.3L240.7 256.2C240.7 259 240.8 261.4 241 263.4C241.2 265.4 241.6 267.4 242.2 269.4C242.8 271.4 243.7 273 244.7 274.3C245.8 275.5 247.2 276.6 249.1 277.3Z" fill="#fefefe" fill-rule="nonzero" opacity="1" stroke="none"/>
<path d="M308.8 296.6L338.4 218.4L309.6 149.2L334.8 149.2L353.9 194.9L370.3 149.2L393.9 149.2L365.5 223.1L396.1 296.6L371 296.6L350.4 247.2L332.3 296.6L308.9 296.6L308.8 296.6Z" fill="#fefefe" fill-rule="nonzero" opacity="1" stroke="none"/>
</g>
</g>
</g>
<g opacity="1">
<path d="M169.228 381.126L170.362 320.487L178.628 320.487L189.344 369.679L200.133 320.487L208.399 320.487L209.533 381.126L202.693 381.126L202.035 337.055L191.758 381.126L187.003 381.126L176.799 337.055L176.14 381.126L169.228 381.126Z" fill="#fefefe" fill-rule="nonzero" opacity="1" stroke="none"/>
<path d="M241.206 380.797C239.304 381.456 237.061 381.785 234.476 381.785C231.892 381.785 229.642 381.449 227.728 380.779C225.814 380.108 224.26 379.194 223.065 378.036C221.87 376.878 220.913 375.39 220.194 373.574C219.475 371.757 218.981 369.831 218.713 367.795C218.445 365.759 218.31 363.388 218.31 360.681L218.31 320.487L226.357 320.487L226.357 361.084C226.357 362.815 226.405 364.315 226.503 365.582C226.601 366.85 226.82 368.124 227.161 369.404C227.503 370.685 227.96 371.715 228.533 372.495C229.106 373.275 229.892 373.915 230.892 374.415C231.892 374.915 233.086 375.165 234.476 375.165C235.866 375.165 237.055 374.915 238.042 374.415C239.03 373.915 239.81 373.269 240.383 372.477C240.956 371.684 241.413 370.654 241.754 369.386C242.096 368.118 242.315 366.85 242.413 365.582C242.51 364.315 242.559 362.815 242.559 361.084L242.559 320.487L250.605 320.487L250.605 360.681C250.605 363.388 250.471 365.759 250.203 367.795C249.935 369.831 249.441 371.757 248.722 373.574C248.002 375.39 247.045 376.878 245.851 378.036C244.656 379.194 243.108 380.115 241.206 380.797Z" fill="#fefefe" fill-rule="nonzero" opacity="1" stroke="none"/>
<path d="M273.83 381.785C268.734 381.785 264.851 380.212 262.181 377.067C259.511 373.921 258.018 369.618 257.701 364.156L265.235 362.108C265.771 370.788 268.636 375.128 273.83 375.128C276 375.128 277.652 374.525 278.786 373.318C279.919 372.111 280.486 370.337 280.486 367.996C280.486 366.704 280.334 365.521 280.029 364.449C279.724 363.376 279.225 362.352 278.53 361.376C277.835 360.401 277.176 359.59 276.555 358.944C275.933 358.298 275.049 357.439 273.903 356.366L263.735 347.332C261.687 345.479 260.194 343.522 259.255 341.462C258.316 339.401 257.847 336.884 257.847 333.909C257.847 329.52 259.121 326.101 261.669 323.65C264.217 321.2 267.698 319.95 272.111 319.901C276.963 319.828 280.596 321.078 283.01 323.65C285.424 326.223 286.875 330.203 287.362 335.592L280.23 337.567C280.133 336.25 279.999 335.08 279.828 334.056C279.657 333.031 279.377 332.001 278.987 330.965C278.597 329.929 278.121 329.088 277.56 328.441C277 327.795 276.256 327.283 275.329 326.905C274.403 326.527 273.33 326.375 272.111 326.448C267.649 326.765 265.418 328.984 265.418 333.105C265.418 334.885 265.723 336.372 266.332 337.567C266.942 338.761 267.966 340.017 269.404 341.334L279.645 350.368C282.303 352.757 284.418 355.317 285.991 358.048C287.563 360.779 288.35 363.876 288.35 367.338C288.35 371.776 287.009 375.293 284.327 377.89C281.645 380.486 278.146 381.785 273.83 381.785Z" fill="#fefefe" fill-rule="nonzero" opacity="1" stroke="none"/>
<path d="M295.409 381.126L295.409 320.487L303.711 320.487L303.711 381.126L295.409 381.126Z" fill="#fefefe" fill-rule="nonzero" opacity="1" stroke="none"/>
<path d="M328.691 381.785C326.18 381.785 323.973 381.443 322.071 380.761C320.169 380.078 318.615 379.151 317.408 377.981C316.201 376.811 315.213 375.354 314.445 373.61C313.677 371.867 313.147 370.032 312.854 368.106C312.562 366.18 312.416 364.022 312.416 361.632L312.416 340.2C312.416 337.64 312.568 335.36 312.873 333.361C313.177 331.361 313.708 329.496 314.464 327.765C315.22 326.034 316.207 324.607 317.426 323.486C318.645 322.364 320.2 321.486 322.089 320.852C323.979 320.218 326.18 319.901 328.691 319.901C334.153 319.901 338.066 321.377 340.431 324.327C342.796 327.277 343.979 331.617 343.979 337.347L343.979 342.175L335.969 342.175L335.969 337.896C335.969 336.969 335.963 336.244 335.951 335.72C335.939 335.195 335.914 334.543 335.878 333.763C335.841 332.983 335.774 332.373 335.677 331.934C335.579 331.495 335.451 330.983 335.293 330.398C335.134 329.813 334.933 329.356 334.689 329.027C334.445 328.697 334.141 328.344 333.775 327.966C333.409 327.588 332.995 327.308 332.531 327.125C332.068 326.942 331.519 326.79 330.885 326.668C330.251 326.546 329.544 326.485 328.764 326.485C327.594 326.485 326.57 326.613 325.692 326.869C324.814 327.125 324.095 327.527 323.534 328.076C322.973 328.624 322.516 329.228 322.163 329.886C321.809 330.544 321.547 331.392 321.376 332.428C321.205 333.464 321.09 334.464 321.029 335.427C320.968 336.39 320.937 337.579 320.937 338.993L320.937 362.986C320.937 367.545 321.51 370.715 322.656 372.495C323.802 374.275 325.838 375.165 328.764 375.165C329.886 375.165 330.855 375.043 331.672 374.799C332.489 374.555 333.159 374.153 333.683 373.592C334.208 373.031 334.628 372.446 334.945 371.837C335.262 371.227 335.494 370.404 335.64 369.368C335.786 368.332 335.878 367.375 335.914 366.497C335.951 365.619 335.969 364.473 335.969 363.059L335.969 358.597L343.979 358.597L343.979 363.095C343.979 365.412 343.833 367.484 343.54 369.313C343.247 371.142 342.748 372.855 342.041 374.452C341.333 376.049 340.407 377.371 339.261 378.42C338.115 379.468 336.652 380.291 334.872 380.889C333.092 381.486 331.032 381.785 328.691 381.785Z" fill="#fefefe" fill-rule="nonzero" opacity="1" stroke="none"/>
</g>
</g>
</svg>
