<svg width="848" height="386" viewBox="0 0 848 386" fill="none" xmlns="http://www.w3.org/2000/svg">
<path d="M4.9358 154.264C2.20989 154.264 0 152.054 0 149.329V135.943C0 133.217 2.20989 131.007 4.9358 131.007C7.66171 131.007 9.8716 133.217 9.8716 135.943V149.329C9.8716 152.054 7.66216 154.264 4.9358 154.264Z" fill="white" fill-opacity="0.2"/>
<path d="M34.8694 165.033C32.1435 165.033 29.9336 162.823 29.9336 160.097V125.175C29.9336 122.449 32.1435 120.239 34.8694 120.239C37.5953 120.239 39.8052 122.449 39.8052 125.175V160.097C39.8052 162.823 37.5953 165.033 34.8694 165.033Z" fill="white" fill-opacity="0.2"/>
<path d="M64.802 159.234C62.0761 159.234 59.8662 157.024 59.8662 154.298V130.973C59.8662 128.247 62.0761 126.037 64.802 126.037C67.5279 126.037 69.7378 128.247 69.7378 130.973V154.298C69.7378 157.024 67.5284 159.234 64.802 159.234Z" fill="white" fill-opacity="0.2"/>
<path d="M94.7356 172.752C92.0097 172.752 89.7998 170.543 89.7998 167.817V117.455C89.7998 114.729 92.0097 112.519 94.7356 112.519C97.4615 112.519 99.6714 114.729 99.6714 117.455V167.817C99.6714 170.543 97.4615 172.752 94.7356 172.752Z" fill="white" fill-opacity="0.2"/>
<path d="M124.668 165.033C121.942 165.033 119.732 162.823 119.732 160.097V125.175C119.732 122.449 121.942 120.239 124.668 120.239C127.394 120.239 129.604 122.449 129.604 125.175V160.097C129.604 162.823 127.394 165.033 124.668 165.033Z" fill="white" fill-opacity="0.2"/>
<path d="M154.602 156.451C151.876 156.451 149.666 154.241 149.666 151.515V133.756C149.666 131.03 151.876 128.82 154.602 128.82C157.328 128.82 159.538 131.03 159.538 133.756V151.515C159.538 154.241 157.328 156.451 154.602 156.451Z" fill="white" fill-opacity="0.2"/>
<path d="M184.535 165.033C181.809 165.033 179.599 162.823 179.599 160.097V125.175C179.599 122.449 181.809 120.239 184.535 120.239C187.261 120.239 189.471 122.449 189.471 125.175V160.097C189.471 162.823 187.261 165.033 184.535 165.033Z" fill="white" fill-opacity="0.2"/>
<path d="M214.468 179.512C211.742 179.512 209.532 177.302 209.532 174.576V109.105C209.532 106.379 211.742 104.169 214.468 104.169C217.194 104.169 219.404 106.379 219.404 109.105V174.576C219.404 177.302 217.194 179.512 214.468 179.512Z" fill="white" fill-opacity="0.2"/>
<path d="M244.401 229.343C241.675 229.343 239.465 227.133 239.465 224.407V66.1653C239.465 63.4394 241.675 61.2295 244.401 61.2295C247.127 61.2295 249.337 63.4394 249.337 66.1653V224.407C249.337 227.134 247.127 229.343 244.401 229.343Z" fill="white" fill-opacity="0.2"/>
<path d="M274.334 276.525C271.608 276.525 269.398 274.315 269.398 271.589V13.6829C269.398 10.957 271.608 8.74707 274.334 8.74707C277.06 8.74707 279.27 10.957 279.27 13.6829V271.589C279.27 274.315 277.06 276.525 274.334 276.525Z" fill="white" fill-opacity="0.2"/>
<path d="M304.267 312.183C301.541 312.183 299.332 309.973 299.332 307.247V4.9358C299.332 2.20989 301.541 0 304.267 0C306.993 0 309.203 2.20989 309.203 4.9358V307.247C309.203 309.973 306.993 312.183 304.267 312.183Z" fill="white" fill-opacity="0.2"/>
<path d="M334.2 340.405C331.475 340.405 329.265 338.195 329.265 335.469V13.6829C329.265 10.957 331.475 8.74707 334.2 8.74707C336.926 8.74707 339.136 10.957 339.136 13.6829V335.469C339.136 338.195 336.926 340.405 334.2 340.405Z" fill="white" fill-opacity="0.2"/>
<path d="M364.134 354.983C361.408 354.983 359.198 352.773 359.198 350.047V32.7673C359.198 30.0414 361.408 27.8315 364.134 27.8315C366.859 27.8315 369.069 30.0414 369.069 32.7673V350.047C369.069 352.774 366.859 354.983 364.134 354.983Z" fill="white" fill-opacity="0.2"/>
<path d="M394.067 367.706C391.341 367.706 389.131 365.496 389.131 362.77V66.1653C389.131 63.4394 391.341 61.2295 394.067 61.2295C396.793 61.2295 399.003 63.4394 399.003 66.1653V362.77C399.003 365.496 396.793 367.706 394.067 367.706Z" fill="white" fill-opacity="0.2"/>
<path d="M424 385.2C421.274 385.2 419.064 382.991 419.064 380.265V77.2976C419.064 74.5717 421.274 72.3618 424 72.3618C426.726 72.3618 428.936 74.5717 428.936 77.2976V380.264C428.936 382.991 426.726 385.2 424 385.2Z" fill="white" fill-opacity="0.2"/>
<path d="M843.064 154.264C840.338 154.264 838.128 152.054 838.128 149.329V135.943C838.128 133.217 840.338 131.007 843.064 131.007C845.79 131.007 848 133.217 848 135.943V149.329C848 152.054 845.79 154.264 843.064 154.264Z" fill="white" fill-opacity="0.2"/>
<path d="M813.131 165.033C810.405 165.033 808.195 162.823 808.195 160.097V125.175C808.195 122.449 810.405 120.239 813.131 120.239C815.857 120.239 818.067 122.449 818.067 125.175V160.097C818.067 162.823 815.857 165.033 813.131 165.033Z" fill="white" fill-opacity="0.2"/>
<path d="M783.198 159.234C780.472 159.234 778.262 157.024 778.262 154.298V130.973C778.262 128.247 780.472 126.037 783.198 126.037C785.924 126.037 788.134 128.247 788.134 130.973V154.298C788.134 157.024 785.924 159.234 783.198 159.234Z" fill="white" fill-opacity="0.2"/>
<path d="M753.264 172.752C750.539 172.752 748.329 170.543 748.329 167.817V117.455C748.329 114.729 750.539 112.519 753.264 112.519C755.99 112.519 758.2 114.729 758.2 117.455V167.817C758.2 170.543 755.99 172.752 753.264 172.752Z" fill="white" fill-opacity="0.2"/>
<path d="M723.331 165.033C720.605 165.033 718.396 162.823 718.396 160.097V125.175C718.396 122.449 720.605 120.239 723.331 120.239C726.057 120.239 728.267 122.449 728.267 125.175V160.097C728.267 162.823 726.057 165.033 723.331 165.033Z" fill="white" fill-opacity="0.2"/>
<path d="M693.398 156.451C690.672 156.451 688.462 154.241 688.462 151.515V133.756C688.462 131.03 690.672 128.82 693.398 128.82C696.124 128.82 698.334 131.03 698.334 133.756V151.515C698.334 154.241 696.124 156.451 693.398 156.451Z" fill="white" fill-opacity="0.2"/>
<path d="M663.465 165.033C660.739 165.033 658.529 162.823 658.529 160.097V125.175C658.529 122.449 660.739 120.239 663.465 120.239C666.191 120.239 668.401 122.449 668.401 125.175V160.097C668.401 162.823 666.191 165.033 663.465 165.033Z" fill="white" fill-opacity="0.2"/>
<path d="M633.532 179.512C630.806 179.512 628.596 177.302 628.596 174.576V109.105C628.596 106.379 630.806 104.169 633.532 104.169C636.258 104.169 638.468 106.379 638.468 109.105V174.576C638.468 177.302 636.258 179.512 633.532 179.512Z" fill="white" fill-opacity="0.2"/>
<path d="M603.599 229.343C600.873 229.343 598.663 227.133 598.663 224.407V66.1653C598.663 63.4394 600.873 61.2295 603.599 61.2295C606.325 61.2295 608.535 63.4394 608.535 66.1653V224.407C608.535 227.134 606.325 229.343 603.599 229.343Z" fill="white" fill-opacity="0.2"/>
<path d="M573.666 276.525C570.94 276.525 568.73 274.315 568.73 271.589V13.6829C568.73 10.957 570.94 8.74707 573.666 8.74707C576.392 8.74707 578.602 10.957 578.602 13.6829V271.589C578.602 274.315 576.392 276.525 573.666 276.525Z" fill="white" fill-opacity="0.2"/>
<path d="M543.733 312.183C541.007 312.183 538.797 309.973 538.797 307.247V4.9358C538.797 2.20989 541.007 0 543.733 0C546.459 0 548.668 2.20989 548.668 4.9358V307.247C548.668 309.973 546.459 312.183 543.733 312.183Z" fill="white" fill-opacity="0.2"/>
<path d="M513.799 340.405C511.073 340.405 508.863 338.195 508.863 335.469V13.6829C508.863 10.957 511.073 8.74707 513.799 8.74707C516.525 8.74707 518.735 10.957 518.735 13.6829V335.469C518.735 338.195 516.525 340.405 513.799 340.405Z" fill="white" fill-opacity="0.2"/>
<path d="M483.866 354.983C481.141 354.983 478.931 352.773 478.931 350.047V32.7673C478.931 30.0414 481.141 27.8315 483.866 27.8315C486.592 27.8315 488.802 30.0414 488.802 32.7673V350.047C488.802 352.774 486.592 354.983 483.866 354.983Z" fill="white" fill-opacity="0.2"/>
<path d="M453.933 367.706C451.207 367.706 448.997 365.496 448.997 362.77V66.1653C448.997 63.4394 451.207 61.2295 453.933 61.2295C456.659 61.2295 458.869 63.4394 458.869 66.1653V362.77C458.869 365.496 456.659 367.706 453.933 367.706Z" fill="white" fill-opacity="0.2"/>
</svg>
