<svg width="22" height="22" viewBox="0 0 22 22" fill="none" xmlns="http://www.w3.org/2000/svg">
<path d="M18.5627 2.521H3.43766C3.19455 2.521 2.96139 2.61757 2.78948 2.78948C2.61757 2.96139 2.521 3.19455 2.521 3.43766V18.5627C2.521 18.8058 2.61757 19.0389 2.78948 19.2108C2.96139 19.3828 3.19455 19.4793 3.43766 19.4793H18.5627C18.8058 19.4793 19.0389 19.3828 19.2108 19.2108C19.3828 19.0389 19.4793 18.8058 19.4793 18.5627V3.43766C19.4793 3.19455 19.3828 2.96139 19.2108 2.78948C19.0389 2.61757 18.8058 2.521 18.5627 2.521Z" stroke="url(#paint0_linear_320_346)" stroke-width="1.5" stroke-linecap="round" stroke-linejoin="round"/>
<path d="M11.7239 16.5651C11.7046 14.3702 12.2106 12.5566 14.9689 12.6707C18.9046 2.64143 2.85833 3.02368 7.13595 12.6106C8.43304 12.53 10.5826 13.3023 10.216 16.8026M19.4793 15.3446L2.521 18.0139M2.521 5.06006L8.17912 6.10964M14.8295 7.11798L19.4793 7.79677" stroke="url(#paint1_linear_320_346)" stroke-width="1.5" stroke-linecap="round" stroke-linejoin="round"/>
<defs>
<linearGradient id="paint0_linear_320_346" x1="11.0002" y1="2.521" x2="11.0002" y2="19.4793" gradientUnits="userSpaceOnUse">
<stop stop-color="#EF286F"/>
<stop offset="1" stop-color="#E85E8F"/>
</linearGradient>
<linearGradient id="paint1_linear_320_346" x1="11.0002" y1="5.06006" x2="11.0002" y2="18.0139" gradientUnits="userSpaceOnUse">
<stop stop-color="#EF286F"/>
<stop offset="1" stop-color="#E85E8F"/>
</linearGradient>
</defs>
</svg>
